<svg id="Layer_1" data-name="Layer 1" xmlns="http://www.w3.org/2000/svg" xmlns:xlink="http://www.w3.org/1999/xlink" width="1125.3" height="759.6" viewBox="0 0 1125.3 759.6">
  <defs>
    <style>
      .cls-1, .cls-2 {
        clip-rule: evenodd;
      }

      .cls-2, .cls-3 {
        fill: none;
      }

      .cls-4 {
        fill-rule: evenodd;
      }

      .cls-5 {
        clip-path: url(#clip-path);
      }

      .cls-6 {
        clip-path: url(#clip-path-2);
      }

      .cls-7 {
        clip-path: url(#clip-path-3);
      }

      .cls-8 {
        clip-path: url(#clip-path-5);
      }

      .cls-9 {
        clip-path: url(#clip-path-6);
      }

      .cls-10 {
        fill: #fff;
      }

      .cls-11 {
        clip-path: url(#clip-path-7);
      }

      .cls-12 {
        clip-path: url(#clip-path-9);
      }

      .cls-13 {
        clip-path: url(#clip-path-11);
      }

      .cls-14 {
        clip-path: url(#clip-path-13);
      }

      .cls-15 {
        clip-path: url(#clip-path-15);
      }

      .cls-16 {
        clip-path: url(#clip-path-17);
      }

      .cls-17 {
        clip-path: url(#clip-path-19);
      }

      .cls-18 {
        clip-path: url(#clip-path-21);
      }

      .cls-19 {
        clip-path: url(#clip-path-23);
      }

      .cls-20 {
        clip-path: url(#clip-path-25);
      }

      .cls-21 {
        clip-path: url(#clip-path-27);
      }

      .cls-22 {
        clip-path: url(#clip-path-29);
      }

      .cls-23 {
        clip-path: url(#clip-path-31);
      }

      .cls-24 {
        clip-path: url(#clip-path-33);
      }

      .cls-25 {
        clip-path: url(#clip-path-35);
      }
    </style>
    <clipPath id="clip-path">
      <path class="cls-1" d="M909.8193,386.99l1.87-161.6925-115.938,44.0192C785.8224,273.2509,779.1,275.13,779.1,286.789V456.7117c1.87-10.4379,8.4159-16.3494,19.6368-23.8918Z"/>
    </clipPath>
    <clipPath id="clip-path-2">
      <rect width="1125.3" height="759.6"/>
    </clipPath>
    <clipPath id="clip-path-3">
      <path class="cls-1" d="M903.2835,386.7308l1.8339-152.5253L795.4953,273.3525c-8.6418,3.4086-13.5747,6.9718-15.5142,9.61l1.2222,168.2808C786.1461,448.4695,903.2835,386.7308,903.2835,386.7308Z"/>
    </clipPath>
    <clipPath id="clip-path-5">
      <path class="cls-2" d="M907.7955,391.1953,909.6126,238.69s-105.4485,33.753-114.2592,36.7465-13.4484,6.8244-15.37,9.4413l1.2108,168.2941C786.0912,450.4519,907.7955,391.1953,907.7955,391.1953Z"/>
    </clipPath>
    <clipPath id="clip-path-6">
      <rect class="cls-3" width="1125.3" height="759.6"/>
    </clipPath>
    <clipPath id="clip-path-7">
      <path class="cls-1" d="M913.1646,396.0552l1.8873-152.5071s-110.5947,30.3566-119.1057,33.4045-13.9692,6.0715-15.9651,8.69l1.2576,168.2929C786.3252,451.2113,913.1646,396.0552,913.1646,396.0552Z"/>
    </clipPath>
    <clipPath id="clip-path-9">
      <path class="cls-2" d="M918.0384,402.3093,919.97,249.8466S804.8592,276.0941,796.3257,278.48s-14.3,4.5949-16.3434,7.1667L781.27,453.97C786.4767,451.3648,918.0384,402.3093,918.0384,402.3093Z"/>
    </clipPath>
    <clipPath id="clip-path-11">
      <path class="cls-1" d="M921.6153,409.1607l1.866-152.482S805.2246,278.05,795.9558,280.4351s-14.0013,3.0009-15.9747,5.593l1.2432,168.31C786.2532,451.681,921.6153,409.1607,921.6153,409.1607Z"/>
    </clipPath>
    <clipPath id="clip-path-13">
      <path class="cls-2" d="M923.8929,410.2189l1.7913-148.235s-125.49,18.6836-130.37,19.5559-12.92,2.3216-15.333,4.6581l1.1934,163.55C786.0012,447.0558,923.8929,410.2189,923.8929,410.2189Z"/>
    </clipPath>
    <clipPath id="clip-path-15">
      <path class="cls-1" d="M925.9536,423.463l1.5711-154.5264s-128.9325,12.8969-132.9726,13.3349-12.4011,1.7263-14.571,3.9263l1.1343,163.5488C785.7021,447.051,925.9536,423.463,925.9536,423.463Z"/>
    </clipPath>
    <clipPath id="clip-path-17">
      <path class="cls-2" d="M926.7117,429.6983l2.2722-154.5707s-130.9233,7.8877-134.1333,7.8877-12.8613,1.6111-14.8674,3.1825L781.14,449.7466Z"/>
    </clipPath>
    <clipPath id="clip-path-19">
      <path class="cls-1" d="M928.2543,441.73l1.48-159.4835s-133.92,2.0207-134.5749,2c-3.2772-.1039-12.4314.367-15.1785,1.9572L781.1625,449.79Z"/>
    </clipPath>
    <clipPath id="clip-path-21">
      <path class="cls-2" d="M926.9523,452.3935l1.9695-162.2311s-132.0741-4.7206-133.6839-4.8092c-3.294-.1813-12.5424-.326-15.2568.855l1.1874,163.6142Z"/>
    </clipPath>
    <clipPath id="clip-path-23">
      <path class="cls-1" d="M926.76,462.19l2.8539-163.2409s-136.45-12.7493-137.1228-12.7972c-3.363-.24-10.3158-1.1175-12.51.06l1.2123,163.6352Z"/>
    </clipPath>
    <clipPath id="clip-path-25">
      <path class="cls-2" d="M926.7192,471.3115l2.2026-164.123S799.185,288.2661,795.9162,287.7748s-11.8152-1.9564-15.9351-1.5605l1.24,163.6567C786.2376,447.6113,926.7192,471.3115,926.7192,471.3115Z"/>
    </clipPath>
    <clipPath id="clip-path-27">
      <path class="cls-1" d="M926.1507,486.192l1.8021-169.8245s-125.0592-25.5916-131.6-26.8978c-2.76-.5512-12.7095-2.7662-16.3719-3.4255l1.2639,168.417Z"/>
    </clipPath>
    <clipPath id="clip-path-29">
      <path class="cls-2" d="M925.728,497.5546l1.19-172.32s-126.9453-32.8273-130.48-33.9011c-3.5238-1.0706-12.3417-3.8932-16.4568-5.6678L781.2741,454.5Z"/>
    </clipPath>
    <clipPath id="clip-path-31">
      <path class="cls-1" d="M925.6842,512.5977V334.3958S801.9819,295.34,797.0463,293.7573a102.5489,102.5489,0,0,1-17.0652-7.7016L781.3044,454.56C786.6564,452.6877,925.6842,512.5977,925.6842,512.5977Z"/>
    </clipPath>
    <clipPath id="clip-path-33">
      <path class="cls-2" d="M923.0841,519.8854V341.6836s-124.0236-43.7214-127.6875-45.0321c-3.6531-1.3068-10.9113-4.6939-15.4227-10.009l-.39,175.8593C780.9963,470.5626,923.0841,519.8854,923.0841,519.8854Z"/>
    </clipPath>
    <clipPath id="clip-path-35">
      <path class="cls-1" d="M792.3,316.1045v24.7709l25.1,10.8451V326.95Zm42,18.3v24.7709l25.1,10.8451V345.25Zm42,18.3v24.7709l25.1,10.8452V363.55Zm-84,2.4v24.7709l25.1,10.8452V365.95Zm42,18.3v24.7709l25.1,10.8452V384.25Zm42,18.3v24.7709l25.1,10.8452V402.55Zm-84,2.4v24.7709l25.1,10.8452V404.95Zm42,18.3v24.7709l25.1,10.8452V423.25Zm42,18.3v24.7709l25.1,10.8451V441.55Zm44.0436-78.0766L922.5,530.7l-61.6506-26.1433V470.9223a5.5445,5.5445,0,0,0-3.3051-5.1769l-21.8055-9.4175c-2.1023-1.4448-4.8291.0882-4.8291,1.5923v33.7377L798.3,477.4732c-13.8087-6.54-19.2-13.173-19.2-23.0365V284.1c2.1564,10.0872,9.7038,12.8222,22.6422,18.2591Z"/>
    </clipPath>
  </defs>
  <title>B&amp;amp;W preview</title>
  <g>
    <g>
      <path class="cls-4" d="M909.8193,386.99l1.87-161.6925-115.938,44.0192C785.8224,273.2509,779.1,275.13,779.1,286.789V456.7117c1.87-10.4379,8.4159-16.3494,19.6368-23.8918Z"/>
      <g class="cls-5">
        <g>
          <rect width="1125.3" height="759.6"/>
          <g class="cls-6">
            <rect x="777.6" y="223.7973" width="135.5895" height="234.4143"/>
          </g>
        </g>
      </g>
    </g>
    <g>
      <path class="cls-4" d="M903.2835,386.7308l1.8339-152.5253L795.4953,273.3525c-8.6418,3.4086-13.5747,6.9718-15.5142,9.61l1.2222,168.2808C786.1461,448.4695,903.2835,386.7308,903.2835,386.7308Z"/>
      <g class="cls-7">
        <g>
          <rect width="1125.3" height="759.6"/>
          <g class="cls-6">
            <rect x="778.4811" y="232.7054" width="128.1365" height="220.0377"/>
          </g>
        </g>
      </g>
    </g>
    <g class="cls-8">
      <g class="cls-9">
        <rect class="cls-10" x="778.4835" y="237.1898" width="132.6291" height="217.4819"/>
      </g>
    </g>
    <g>
      <path class="cls-4" d="M913.1646,396.0552l1.8873-152.5071s-110.5947,30.3566-119.1057,33.4045-13.9692,6.0715-15.9651,8.69l1.2576,168.2929C786.3252,451.2113,913.1646,396.0552,913.1646,396.0552Z"/>
      <g class="cls-11">
        <g>
          <rect width="1125.3" height="759.6"/>
          <g class="cls-6">
            <rect x="778.4811" y="242.0481" width="138.0708" height="213.3877"/>
          </g>
        </g>
      </g>
    </g>
    <g class="cls-12">
      <g class="cls-9">
        <rect class="cls-10" x="778.4823" y="248.3466" width="142.9881" height="207.1231"/>
      </g>
    </g>
    <g>
      <path class="cls-4" d="M921.6153,409.1607l1.866-152.482S805.2246,278.05,795.9558,280.4351s-14.0013,3.0009-15.9747,5.593l1.2432,168.31C786.2532,451.681,921.6153,409.1607,921.6153,409.1607Z"/>
      <g class="cls-13">
        <g>
          <rect width="1125.3" height="759.6"/>
          <g class="cls-6">
            <rect x="778.4811" y="255.1787" width="146.5002" height="200.659"/>
          </g>
        </g>
      </g>
    </g>
    <g class="cls-14">
      <g class="cls-9">
        <rect class="cls-10" x="778.4811" y="260.4838" width="148.7031" height="190.7638"/>
      </g>
    </g>
    <g>
      <path class="cls-4" d="M925.9536,423.463l1.5711-154.5264s-128.9325,12.8969-132.9726,13.3349-12.4011,1.7263-14.571,3.9263l1.1343,163.5488C785.7021,447.051,925.9536,423.463,925.9536,423.463Z"/>
      <g class="cls-15">
        <g>
          <rect width="1125.3" height="759.6"/>
          <g class="cls-6">
            <rect x="778.4811" y="267.4366" width="150.5436" height="183.81"/>
          </g>
        </g>
      </g>
    </g>
    <g class="cls-16">
      <g class="cls-9">
        <rect class="cls-10" x="778.4832" y="273.6276" width="152.0007" height="177.619"/>
      </g>
    </g>
    <g>
      <path class="cls-4" d="M928.2543,441.73l1.48-159.4835s-133.92,2.0207-134.5749,2c-3.2772-.1039-12.4314.367-15.1785,1.9572L781.1625,449.79Z"/>
      <g class="cls-17">
        <g>
          <rect width="1125.3" height="759.6"/>
          <g class="cls-6">
            <rect x="778.4811" y="280.7468" width="152.7534" height="170.5434"/>
          </g>
        </g>
      </g>
    </g>
    <g class="cls-18">
      <g class="cls-9">
        <rect class="cls-10" x="778.4811" y="283.7316" width="151.9407" height="170.1619"/>
      </g>
    </g>
    <g>
      <path class="cls-4" d="M926.76,462.19l2.8539-163.2409s-136.45-12.7493-137.1228-12.7972c-3.363-.24-10.3158-1.1175-12.51.06l1.2123,163.6352Z"/>
      <g class="cls-19">
        <g>
          <rect width="1125.3" height="759.6"/>
          <g class="cls-6">
            <rect x="778.4811" y="284.1117" width="152.6325" height="179.5779"/>
          </g>
        </g>
      </g>
    </g>
    <g class="cls-20">
      <g class="cls-9">
        <rect class="cls-10" x="778.4811" y="284.6472" width="151.9407" height="188.1642"/>
      </g>
    </g>
    <g>
      <path class="cls-4" d="M926.1507,486.192l1.8021-169.8245s-125.0592-25.5916-131.6-26.8978c-2.76-.5512-12.7095-2.7662-16.3719-3.4255l1.2639,168.417Z"/>
      <g class="cls-21">
        <g>
          <rect width="1125.3" height="759.6"/>
          <g class="cls-6">
            <rect x="778.4811" y="284.5443" width="150.9717" height="203.1478"/>
          </g>
        </g>
      </g>
    </g>
    <g class="cls-22">
      <g class="cls-9">
        <rect class="cls-10" x="778.4811" y="284.1661" width="149.9364" height="214.8885"/>
      </g>
    </g>
    <g>
      <path class="cls-4" d="M925.6842,512.5977V334.3958S801.9819,295.34,797.0463,293.7573a102.5489,102.5489,0,0,1-17.0652-7.7016L781.3044,454.56C786.6564,452.6877,925.6842,512.5977,925.6842,512.5977Z"/>
      <g class="cls-23">
        <g>
          <rect width="1125.3" height="759.6"/>
          <g class="cls-6">
            <rect x="778.4811" y="284.5557" width="148.7031" height="229.542"/>
          </g>
        </g>
      </g>
    </g>
    <g class="cls-24">
      <g class="cls-9">
        <rect class="cls-10" x="778.0836" y="285.1425" width="146.5005" height="236.2429"/>
      </g>
    </g>
    <g>
      <path class="cls-4" d="M792.3,316.1045v24.7709l25.1,10.8451V326.95Zm42,18.3v24.7709l25.1,10.8451V345.25Zm42,18.3v24.7709l25.1,10.8452V363.55Zm-84,2.4v24.7709l25.1,10.8452V365.95Zm42,18.3v24.7709l25.1,10.8452V384.25Zm42,18.3v24.7709l25.1,10.8452V402.55Zm-84,2.4v24.7709l25.1,10.8452V404.95Zm42,18.3v24.7709l25.1,10.8452V423.25Zm42,18.3v24.7709l25.1,10.8451V441.55Zm44.0436-78.0766L922.5,530.7l-61.6506-26.1433V470.9223a5.5445,5.5445,0,0,0-3.3051-5.1769l-21.8055-9.4175c-2.1023-1.4448-4.8291.0882-4.8291,1.5923v33.7377L798.3,477.4732c-13.8087-6.54-19.2-13.173-19.2-23.0365V284.1c2.1564,10.0872,9.7038,12.8222,22.6422,18.2591Z"/>
      <g class="cls-25">
        <g>
          <rect width="1125.3" height="759.6"/>
          <g class="cls-6">
            <rect x="777.6" y="282.6" width="146.4" height="249.6"/>
          </g>
        </g>
      </g>
    </g>
    <g id="Flatlas">
      <path d="M680.5115,447.3a25.0759,25.0759,0,0,1-16.995-7.06A23.8768,23.8768,0,0,1,655.8,422.88h8.4c0,7.5623,6.9757,16.02,16.3115,16.02,7.9446,0,16.241-5.8907,16.3885-15.75V409.6994c0-9.8013-.8306-14.8834-3.0643-18.7516-2.3508-4.0707-6.6853-7.2857-14.9606-11.0969-11.7343-5.4042-15.9111-9.3152-18.5725-13.5249-3.5139-5.5583-4.2567-12.1781-4.3525-21.734l0-.0423,0-.0423.1525-15A24.7333,24.7333,0,0,1,680.811,305.13c13.2573,0,23.8162,10.6966,24.0384,24.352l-8.3988.1365c-.1493-9.172-6.8728-16.0885-15.64-16.0885a16.4034,16.4034,0,0,0-16.3093,16.0876L664.35,344.55c.0961,9.3485.8959,13.8753,3.0527,17.2872,2.2346,3.5348,6.4364,6.4462,14.9861,10.3837,9.9979,4.6046,15.4217,8.8129,18.7208,14.526,3.4893,6.042,4.19,13.2618,4.19,22.9523l0,13.5366a23.8062,23.8062,0,0,1-7.9024,17.61A25.5723,25.5723,0,0,1,680.5115,447.3Z"/>
      <path d="M572.85,444.61c-.01-4.3395-.2471-106.4039-.0688-117.5282a24.7117,24.7117,0,0,1,49.4183-.001l.0006.0683V444.6h-8.4V327.1839a16.3114,16.3114,0,0,0-32.62.0321c-.1768,11.0473.0675,116.3121.07,117.3741Z"/>
      <rect x="577.2" y="372.5999" width="40.8" height="8.4"/>
      <rect x="508.5" y="436.7999" width="30" height="8.4"/>
      <rect x="508.5" y="307.7999" width="8.4" height="136.8"/>
      <rect x="424.5375" y="307.7999" width="45.23" height="8.4"/>
      <rect x="445.2" y="307.7999" width="8.4" height="136.8"/>
      <path d="M342.45,444.61c-.01-4.3395-.2471-106.4039-.0688-117.5282a24.7117,24.7117,0,0,1,49.4183-.001l.0006.0683V444.6h-8.4V327.1839a16.3114,16.3114,0,0,0-32.62.0321c-.1768,11.0473.0675,116.3121.07,117.3741Z"/>
      <rect x="349.8" y="372.5999" width="35.25" height="8.4"/>
      <rect x="275.4" y="436.7999" width="30" height="8.4"/>
      <rect x="275.4" y="307.7999" width="8.4" height="136.8"/>
      <rect x="138.6003" y="371.9253" width="136.9493" height="8.4" transform="translate(-169.274 582.7935) rotate(-89.9381)"/>
      <rect x="202.9498" y="307.725" width="41.5397" height="8.3999" transform="matrix(1, -0.0045, 0.0045, 1, -1.4093, 1.0156)"/>
      <rect x="207.3382" y="372.5999" width="20.8824" height="8.4"/>
    </g>
  </g>
</svg>
