<svg id="Layer_1" data-name="Layer 1" xmlns="http://www.w3.org/2000/svg" xmlns:xlink="http://www.w3.org/1999/xlink" width="711.07" height="915.75" viewBox="0 0 711.07 915.75"><defs><clipPath id="clip-path"><path d="M493.1,476.85l4.64-341.27L209.86,228.49c-24.65,8.3-41.35,12.27-41.35,36.88V624c4.64-22,20.9-34.51,48.76-50.43Z" fill="none" clip-rule="evenodd"/></clipPath><clipPath id="clip-path-2"><rect x="-1766.05" y="-339.94" width="2794.21" height="1603.23" fill="none"/></clipPath><clipPath id="clip-path-3"><path d="M476.87,476.31l4.55-321.92L209.23,237c-21.46,7.19-33.71,14.71-38.52,20.28l3,355.18C186,606.61,476.87,476.31,476.87,476.31Z" fill="#f1a43e" clip-rule="evenodd"/></clipPath><clipPath id="clip-path-4"><rect x="-1766.05" y="-339.94" width="2794.21" height="1603.23" fill="#f1a43e"/></clipPath><clipPath id="clip-path-5"><path d="M488.08,485.73l4.51-321.88s-261.84,71.24-283.71,77.56-33.39,14.4-38.16,19.93l3,355.2C185.88,610.8,488.08,485.73,488.08,485.73Z" fill="#f1a43e" clip-rule="evenodd"/></clipPath><clipPath id="clip-path-7"><path d="M513.51,509.19l4.8-321.79s-285.83,55.4-307,60.44-35.51,9.7-40.58,15.13l3.2,355.26C186.83,612.72,513.51,509.19,513.51,509.19Z" fill="none" clip-rule="evenodd"/></clipPath><clipPath id="clip-path-9"><path d="M501.41,496,506.1,174.1s-274.62,64.07-295.75,70.5-34.69,12.81-39.64,18.34l3.12,355.2C186.46,612.4,501.41,496,501.41,496Z" fill="#fff" clip-rule="evenodd"/></clipPath><clipPath id="clip-path-10"><rect x="-1766.05" y="-339.94" width="2794.21" height="1603.23" fill="#fff"/></clipPath><clipPath id="clip-path-11"><path d="M522.39,523.65l3.89-323.1S233.39,246.92,210.37,252s-34.77,6.33-39.67,11.8L173.79,619C186.28,613.39,522.39,523.65,522.39,523.65Z" fill="#f1a43e" clip-rule="evenodd"/></clipPath><clipPath id="clip-path-13"><path d="M528,525.88,532.5,213s-311.6,39.43-323.72,41.28-32.08,4.9-38.07,9.83l3,345.19C185.65,603.63,528,525.88,528,525.88Z" fill="#f1a43e" clip-rule="evenodd"/></clipPath><clipPath id="clip-path-15"><path d="M533.17,553.83l3.9-326.15s-320.15,27.22-330.18,28.14-30.79,3.64-36.18,8.29l2.82,345.19C184.91,603.62,533.17,553.83,533.17,553.83Z" fill="#fff" clip-rule="evenodd"/></clipPath><clipPath id="clip-path-17"><path d="M535,567l5.64-326.24S215.6,257.4,207.63,257.4s-31.94,3.4-36.92,6.72l2.87,345.19Z" fill="#fff" clip-rule="evenodd"/></clipPath><clipPath id="clip-path-19"><path d="M538.88,592.39l3.68-336.61S210,260,208.39,260c-8.14-.22-30.87.77-37.69,4.13l2.93,345.27Z" fill="#f1a43e" clip-rule="evenodd"/></clipPath><clipPath id="clip-path-21"><path d="M535.65,614.89l4.89-342.41s-328-10-331.95-10.15c-8.18-.38-31.14-.69-37.88,1.8l2.95,345.33Z" fill="#f1a43e" clip-rule="evenodd"/></clipPath><clipPath id="clip-path-23"><path d="M535.17,635.57,542.25,291s-338.82-26.91-340.49-27c-8.35-.51-25.61-2.36-31.06.13l3,345.37Z" fill="#fff" clip-rule="evenodd"/></clipPath><clipPath id="clip-path-25"><path d="M535.07,654.82l5.47-346.4s-322.15-39.94-330.26-41-29.34-4.13-39.57-3.29l3.08,345.42C186.24,604.8,535.07,654.82,535.07,654.82Z" fill="#fff" clip-rule="evenodd"/></clipPath><clipPath id="clip-path-27"><path d="M533.66,686.23l4.47-358.43S227.6,273.78,211.36,271c-6.85-1.16-31.56-5.84-40.65-7.23l3.14,355.46Z" fill="#f1a43e" clip-rule="evenodd"/></clipPath><clipPath id="clip-path-29"><path d="M532.61,710.21l3-363.7s-315.22-69.29-324-71.55-30.65-8.22-40.86-12l3.21,356.34Z" fill="#f1a43e" clip-rule="evenodd"/></clipPath><clipPath id="clip-path-31"><path d="M532.5,742V365.85s-307.16-82.43-319.42-85.77a278.56,278.56,0,0,1-42.37-16.26L174,619.47C187.28,615.52,532.5,742,532.5,742Z" fill="#fff" clip-rule="evenodd"/></clipPath><clipPath id="clip-path-33"><path d="M526,761.78V385.66s-308-96.71-317.06-99.48-27.09-9.91-38.3-21.13l-1,371.17C173.23,653.24,526,761.78,526,761.78Z" fill="#fff" clip-rule="evenodd"/></clipPath><clipPath id="clip-path-35"><path d="M201.29,327.24v52.28l62.32,22.89V350.13Zm104.29,38.62v52.28L367.91,441V388.75Zm104.29,38.62v52.28l62.32,22.89V427.38Zm-208.58,5.07v52.28l62.32,22.89V432.44Zm104.29,38.62v52.28l62.32,22.89V471.07ZM409.87,486.8v52.28L472.2,562V509.69Zm-208.58,5.07v52.28L263.62,567V514.76Zm104.29,38.62v52.28l62.32,22.89V553.38Zm104.29,38.62V621.4l62.32,22.89V592ZM519.24,404.33l5.35,375.84L371.51,725V654c0-3.22-1.6-8.44-8.21-10.93L309.16,623.2c-5.22-3-12,.19-12,3.36v71.21l-81-29.94C181.9,654,168.52,640,168.52,619.21V259.69c5.35,21.29,24.1,27.06,56.22,38.54Z" fill="none" clip-rule="evenodd"/></clipPath></defs><title>Favicon preview</title><g clip-path="url(#clip-path)"><g clip-path="url(#clip-path-2)"><rect x="164.79" y="132.41" width="336.68" height="494.76" fill="#444"/></g></g><path d="M476.87,476.31l4.55-321.92L209.23,237c-21.46,7.19-33.71,14.71-38.52,20.28l3,355.18C186,606.61,476.87,476.31,476.87,476.31Z" fill="#f1a43e" fill-rule="evenodd"/><g clip-path="url(#clip-path-3)"><rect x="-1766.05" y="-339.94" width="2794.21" height="1603.23" fill="#f1a43e"/><g clip-path="url(#clip-path-4)"><rect x="166.98" y="151.22" width="318.17" height="464.42" fill="#f1a43e"/></g></g><path d="M488.08,485.73l4.51-321.88s-261.84,71.24-283.71,77.56-33.39,14.4-38.16,19.93l3,355.2C185.88,610.8,488.08,485.73,488.08,485.73Z" fill="#f1a43e" fill-rule="evenodd"/><g clip-path="url(#clip-path-5)"><rect x="-1766.05" y="-339.94" width="2794.21" height="1603.23" fill="#f1a43e"/><g clip-path="url(#clip-path-4)"><rect x="166.99" y="160.68" width="329.33" height="459.02" fill="#f1a43e"/></g></g><g clip-path="url(#clip-path-7)"><g clip-path="url(#clip-path-2)"><rect x="166.98" y="184.23" width="355.05" height="437.16" fill="#fff"/></g></g><path d="M501.41,496,506.1,174.1s-274.62,64.07-295.75,70.5-34.69,12.81-39.64,18.34l3.12,355.2C186.46,612.4,501.41,496,501.41,496Z" fill="#fff" fill-rule="evenodd"/><g clip-path="url(#clip-path-9)"><rect x="-1766.05" y="-339.94" width="2794.21" height="1603.23" fill="#fff"/><g clip-path="url(#clip-path-10)"><rect x="166.98" y="170.94" width="342.84" height="450.38" fill="#fff"/></g></g><path d="M522.39,523.65l3.89-323.1S233.39,246.92,210.37,252s-34.77,6.33-39.67,11.8L173.79,619C186.28,613.39,522.39,523.65,522.39,523.65Z" fill="#f1a43e" fill-rule="evenodd"/><g clip-path="url(#clip-path-11)"><rect x="-1766.05" y="-339.94" width="2794.21" height="1603.23" fill="#f1a43e"/><g clip-path="url(#clip-path-4)"><rect x="166.98" y="198.65" width="363.77" height="423.51" fill="#f1a43e"/></g></g><path d="M528,525.88,532.5,213s-311.6,39.43-323.72,41.28-32.08,4.9-38.07,9.83l3,345.19C185.65,603.63,528,525.88,528,525.88Z" fill="#f1a43e" fill-rule="evenodd"/><g clip-path="url(#clip-path-13)"><rect x="-1766.05" y="-339.94" width="2794.21" height="1603.23" fill="#f1a43e"/><g clip-path="url(#clip-path-4)"><rect x="166.98" y="209.85" width="369.24" height="402.63" fill="#f1a43e"/></g></g><path d="M533.17,553.83l3.9-326.15s-320.15,27.22-330.18,28.14-30.79,3.64-36.18,8.29l2.82,345.19C184.91,603.62,533.17,553.83,533.17,553.83Z" fill="#fff" fill-rule="evenodd"/><g clip-path="url(#clip-path-15)"><rect x="-1766.05" y="-339.94" width="2794.21" height="1603.23" fill="#fff"/><g clip-path="url(#clip-path-10)"><rect x="166.98" y="224.52" width="373.81" height="387.95" fill="#fff"/></g></g><path d="M535,567l5.64-326.24S215.6,257.4,207.63,257.4s-31.94,3.4-36.92,6.72l2.87,345.19Z" fill="#fff" fill-rule="evenodd"/><g clip-path="url(#clip-path-17)"><rect x="-1766.05" y="-339.94" width="2794.21" height="1603.23" fill="#fff"/><g clip-path="url(#clip-path-10)"><rect x="166.99" y="237.59" width="377.43" height="374.89" fill="#fff"/></g></g><path d="M538.88,592.39l3.68-336.61S210,260,208.39,260c-8.14-.22-30.87.77-37.69,4.13l2.93,345.27Z" fill="#f1a43e" fill-rule="evenodd"/><g clip-path="url(#clip-path-19)"><rect x="-1766.05" y="-339.94" width="2794.21" height="1603.23" fill="#f1a43e"/><g clip-path="url(#clip-path-4)"><rect x="166.98" y="252.61" width="379.3" height="359.95" fill="#f1a43e"/></g></g><path d="M535.65,614.89l4.89-342.41s-328-10-331.95-10.15c-8.18-.38-31.14-.69-37.88,1.8l2.95,345.33Z" fill="#f1a43e" fill-rule="evenodd"/><g clip-path="url(#clip-path-21)"><rect x="-1766.05" y="-339.94" width="2794.21" height="1603.23" fill="#f1a43e"/><g clip-path="url(#clip-path-4)"><rect x="166.98" y="258.91" width="377.28" height="359.15" fill="#f1a43e"/></g></g><path d="M535.17,635.57,542.25,291s-338.82-26.91-340.49-27c-8.35-.51-25.61-2.36-31.06.13l3,345.37Z" fill="#fff" fill-rule="evenodd"/><g clip-path="url(#clip-path-23)"><rect x="-1766.05" y="-339.94" width="2794.21" height="1603.23" fill="#fff"/><g clip-path="url(#clip-path-10)"><rect x="166.98" y="259.72" width="379" height="379.02" fill="#fff"/></g></g><path d="M535.07,654.82l5.47-346.4s-322.15-39.94-330.26-41-29.34-4.13-39.57-3.29l3.08,345.42C186.24,604.8,535.07,654.82,535.07,654.82Z" fill="#fff" fill-rule="evenodd"/><g clip-path="url(#clip-path-25)"><rect x="-1766.05" y="-339.94" width="2794.21" height="1603.23" fill="#fff"/><g clip-path="url(#clip-path-10)"><rect x="166.98" y="260.85" width="377.28" height="397.14" fill="#fff"/></g></g><path d="M533.66,686.23l4.47-358.43S227.6,273.78,211.36,271c-6.85-1.16-31.56-5.84-40.65-7.23l3.14,355.46Z" fill="#f1a43e" fill-rule="evenodd"/><g clip-path="url(#clip-path-27)"><rect x="-1766.05" y="-339.94" width="2794.21" height="1603.23" fill="#f1a43e"/><g clip-path="url(#clip-path-4)"><rect x="166.98" y="260.63" width="374.87" height="428.77" fill="#f1a43e"/></g></g><path d="M532.61,710.21l3-363.7s-315.22-69.29-324-71.55-30.65-8.22-40.86-12l3.21,356.34Z" fill="#f1a43e" fill-rule="evenodd"/><g clip-path="url(#clip-path-29)"><rect x="-1766.05" y="-339.94" width="2794.21" height="1603.23" fill="#f1a43e"/><g clip-path="url(#clip-path-4)"><rect x="166.98" y="259.83" width="372.3" height="453.55" fill="#f1a43e"/></g></g><path d="M532.5,742V365.85s-307.16-82.43-319.42-85.77a278.56,278.56,0,0,1-42.37-16.26L174,619.47C187.28,615.52,532.5,742,532.5,742Z" fill="#fff" fill-rule="evenodd"/><g clip-path="url(#clip-path-31)"><rect x="-1766.05" y="-339.94" width="2794.21" height="1603.23" fill="#fff"/><g clip-path="url(#clip-path-10)"><rect x="166.98" y="260.65" width="369.24" height="484.48" fill="#fff"/></g></g><path d="M526,761.78V385.66s-308-96.71-317.06-99.48-27.09-9.91-38.3-21.13l-1,371.17C173.23,653.24,526,761.78,526,761.78Z" fill="#fff" fill-rule="evenodd"/><g clip-path="url(#clip-path-33)"><rect x="-1766.05" y="-339.94" width="2794.21" height="1603.23" fill="#fff"/><g clip-path="url(#clip-path-10)"><rect x="165.99" y="261.89" width="363.77" height="498.62" fill="#fff"/></g></g><g clip-path="url(#clip-path-35)"><g clip-path="url(#clip-path-2)"><rect x="164.79" y="256.53" width="363.52" height="526.81" fill="#444"/></g></g></svg>