<svg id="Layer_1" data-name="Layer 1" xmlns="http://www.w3.org/2000/svg" xmlns:xlink="http://www.w3.org/1999/xlink" width="344" height="198" viewBox="0 0 344 198">
  <defs>
    <style>
      .cls-1, .cls-2 {
        fill: none;
      }

      .cls-1, .cls-3, .cls-5 {
        clip-rule: evenodd;
      }

      .cls-16, .cls-3, .cls-4 {
        fill: #f1a43e;
      }

      .cls-21, .cls-5, .cls-6 {
        fill: #fff;
      }

      .cls-7 {
        fill: #fafafa;
      }

      .cls-8 {
        fill: #eee;
      }

      .cls-9 {
        fill: #ff6464;
      }

      .cls-10 {
        fill: #f9d43a;
      }

      .cls-11 {
        fill: #56e271;
      }

      .cls-12 {
        fill: #ccc;
      }

      .cls-13 {
        clip-path: url(#clip-path);
      }

      .cls-14 {
        clip-path: url(#clip-path-2);
      }

      .cls-15 {
        fill: #444;
      }

      .cls-16, .cls-21 {
        fill-rule: evenodd;
      }

      .cls-17 {
        clip-path: url(#clip-path-3);
      }

      .cls-18 {
        clip-path: url(#clip-path-4);
      }

      .cls-19 {
        clip-path: url(#clip-path-5);
      }

      .cls-20 {
        clip-path: url(#clip-path-7);
      }

      .cls-22 {
        clip-path: url(#clip-path-9);
      }

      .cls-23 {
        clip-path: url(#clip-path-10);
      }

      .cls-24 {
        clip-path: url(#clip-path-11);
      }

      .cls-25 {
        clip-path: url(#clip-path-13);
      }

      .cls-26 {
        clip-path: url(#clip-path-15);
      }

      .cls-27 {
        clip-path: url(#clip-path-17);
      }

      .cls-28 {
        clip-path: url(#clip-path-19);
      }

      .cls-29 {
        clip-path: url(#clip-path-21);
      }

      .cls-30 {
        clip-path: url(#clip-path-23);
      }

      .cls-31 {
        clip-path: url(#clip-path-25);
      }

      .cls-32 {
        clip-path: url(#clip-path-27);
      }

      .cls-33 {
        clip-path: url(#clip-path-29);
      }

      .cls-34 {
        clip-path: url(#clip-path-31);
      }

      .cls-35 {
        clip-path: url(#clip-path-33);
      }

      .cls-36 {
        clip-path: url(#clip-path-35);
      }
    </style>
    <clipPath id="clip-path">
      <path class="cls-1" d="M208.0779,65.7977l.1242-9.124-7.6966,2.4839c-.6592.222-1.1054.3281-1.1054.9859v9.5884c.1242-.589.5587-.9226,1.3036-1.3482Z"/>
    </clipPath>
    <clipPath id="clip-path-2">
      <rect class="cls-2" x="147.6788" y="43.9606" width="74.704" height="42.8627"/>
    </clipPath>
    <clipPath id="clip-path-3">
      <path class="cls-3" d="M207.6441,65.783l.1217-8.6067-7.2774,2.209a2.5213,2.5213,0,0,0-1.03.5423l.0811,9.4957C199.8678,69.2668,207.6441,65.783,207.6441,65.783Z"/>
    </clipPath>
    <clipPath id="clip-path-4">
      <rect class="cls-4" x="147.6788" y="43.9606" width="74.704" height="42.8627"/>
    </clipPath>
    <clipPath id="clip-path-5">
      <path class="cls-3" d="M207.9436,66.035l.1206-8.6056s-7,1.9046-7.5852,2.0735a2.1643,2.1643,0,0,0-1.02.5328l.08,9.4965C199.8641,69.3787,207.9436,66.035,207.9436,66.035Z"/>
    </clipPath>
    <clipPath id="clip-path-7">
      <path class="cls-1" d="M208.6236,66.6621l.1283-8.6032s-7.6418,1.4811-8.2083,1.6158a2.6353,2.6353,0,0,0-1.085.4044l.0855,9.4981C199.89,69.43,208.6236,66.6621,208.6236,66.6621Z"/>
    </clipPath>
    <clipPath id="clip-path-9">
      <path class="cls-5" d="M208.3,66.3092l.1253-8.6057s-7.3419,1.713-7.9069,1.8849a2.6915,2.6915,0,0,0-1.06.49l.0835,9.4964C199.88,69.4215,208.3,66.3092,208.3,66.3092Z"/>
    </clipPath>
    <clipPath id="clip-path-10">
      <rect class="cls-6" x="147.6788" y="43.9606" width="74.704" height="42.8627"/>
    </clipPath>
    <clipPath id="clip-path-11">
      <path class="cls-3" d="M208.861,67.0487l.104-8.6381s-7.8307,1.24-8.446,1.3744-.9295.1693-1.06.3156l.0825,9.4974C199.8749,69.448,208.861,67.0487,208.861,67.0487Z"/>
    </clipPath>
    <clipPath id="clip-path-13">
      <path class="cls-3" d="M209.0122,67.1084l.1189-8.3646s-8.3308,1.0543-8.6547,1.1035a3.04,3.04,0,0,0-1.0179.2628l.0792,9.2288C199.8582,69.1871,209.0122,67.1084,209.0122,67.1084Z"/>
    </clipPath>
    <clipPath id="clip-path-15">
      <path class="cls-5" d="M209.149,67.8558l.1043-8.72s-8.5593.7277-8.8275.7525a2.6427,2.6427,0,0,0-.9673.2216l.0753,9.2287C199.8383,69.1868,209.149,67.8558,209.149,67.8558Z"/>
    </clipPath>
    <clipPath id="clip-path-17">
      <path class="cls-5" d="M209.1994,68.2076l.1508-8.7221s-8.6915.4451-8.9046.4451a3.3154,3.3154,0,0,0-.987.18l.0768,9.2287Z"/>
    </clipPath>
    <clipPath id="clip-path-19">
      <path class="cls-3" d="M209.3018,68.8866l.0983-8.9993s-8.89.114-8.9339.1129a3.4819,3.4819,0,0,0-1.0076.11l.0784,9.2308Z"/>
    </clipPath>
    <clipPath id="clip-path-21">
      <path class="cls-3" d="M209.2153,69.4882l.1307-9.1544s-8.7679-.2664-8.8747-.2714a4.3714,4.3714,0,0,0-1.0128.0482l.0788,9.2324Z"/>
    </clipPath>
    <clipPath id="clip-path-23">
      <path class="cls-5" d="M209.2025,70.041l.1895-9.2114s-9.0584-.7194-9.103-.7221a2.8652,2.8652,0,0,0-.83.0034l.08,9.2336Z"/>
    </clipPath>
    <clipPath id="clip-path-25">
      <path class="cls-5" d="M209.2,70.5558l.1462-9.2611s-8.6127-1.0677-8.83-1.0955a6.8837,6.8837,0,0,0-1.0579-.0881l.0823,9.2348C199.8739,69.2184,209.2,70.5558,209.2,70.5558Z"/>
    </clipPath>
    <clipPath id="clip-path-27">
      <path class="cls-3" d="M209.1621,71.3954l.12-9.5829s-8.3022-1.4441-8.7364-1.5178c-.1832-.0311-.8437-.1561-1.0869-.1933l.0839,9.5034Z"/>
    </clipPath>
    <clipPath id="clip-path-29">
      <path class="cls-3" d="M209.1341,72.0366l.079-9.7236s-8.4274-1.8524-8.662-1.913-.8193-.22-1.0925-.32l.0858,9.527Z"/>
    </clipPath>
    <clipPath id="clip-path-31">
      <path class="cls-5" d="M209.1311,72.8855V62.83s-8.2121-2.2038-8.54-2.2932a7.4473,7.4473,0,0,1-1.1329-.4346l.0878,9.5083C199.9017,69.5049,209.1311,72.8855,209.1311,72.8855Z"/>
    </clipPath>
    <clipPath id="clip-path-33">
      <path class="cls-5" d="M208.9585,73.4152V63.36s-8.2334-2.5856-8.4766-2.66a2.6774,2.6774,0,0,1-1.0239-.5648l-.0259,9.9234C199.5259,70.5135,208.9585,73.4152,208.9585,73.4152Z"/>
    </clipPath>
    <clipPath id="clip-path-35">
      <path class="cls-1" d="M200.2763,61.7977v1.3978l1.6663.612V62.41Zm2.7882,1.0326v1.3978l1.6663.612V63.4423Zm2.7882,1.0326v1.3978l1.6663.612V64.475Zm-5.5764.1354v1.3978l1.6663.612V64.61Zm2.7882,1.0326v1.3978l1.6663.612V65.643Zm2.7882,1.0326v1.3978l1.6663.612V66.6757Zm-5.5764.1354v1.3978l1.6663.612V66.8111Zm2.7882,1.0326V68.63l1.6663.612V67.8437Zm2.7882,1.0326v1.3978l1.6663.612V68.8764Zm2.9239-4.4057.1432,10.0482-4.0927-1.4752V70.5338a.3112.3112,0,0,0-.2194-.2921L203.16,69.71c-.14-.0815-.3206.005-.3206.09v1.9038l-2.1648-.8c-.9167-.3691-1.2746-.7433-1.2746-1.3V59.9918c.1432.5692.6442.7235,1.5031,1.03Z"/>
    </clipPath>
  </defs>
  <title>Artboard 17</title>
  <g id="Browser">
    <rect class="cls-7" x="-2.6667" width="346.6667" height="198"/>
    <path class="cls-8" d="M1438.6048,47.63a3.9746,3.9746,0,0,0-3.963-3.963H42.63a3.9747,3.9747,0,0,0-3.963,3.963V87.1358l.0018,20.82.0583,1410.135.0019,21.6124a3.9747,3.9747,0,0,0,3.963,3.963H1434.7037a3.9746,3.9746,0,0,0,3.963-3.963l-.0018-21.6124-.0551-1410.135ZM42.6916,1539.7037V87.1358H1434.7037V1539.7037H42.6916Z"/>
    <circle class="cls-9" cx="61.6105" cy="65.4013" r="7.2431"/>
    <circle class="cls-10" cx="88.0302" cy="65.4013" r="7.2431"/>
    <circle class="cls-11" cx="114.4498" cy="65.4013" r="7.2431"/>
    <path class="cls-6" d="M1394.4342,73.2787a3.9746,3.9746,0,0,1-3.9629,3.9629H197.1a3.9746,3.9746,0,0,1-3.9629-3.9629V57.5238A3.9746,3.9746,0,0,1,197.1,53.5609H1390.4713a3.9746,3.9746,0,0,1,3.9629,3.9629Z"/>
    <path class="cls-12" d="M149.8085,63.9648c-.0106,0-.0193-.006-.03-.006s-.0194.0056-.03.006H142.19l3.0092-2.9783a1.4549,1.4549,0,0,0,0-2.0033,1.44,1.44,0,0,0-2.0228,0l-5.4147,5.4041-.01.0206-.02.03v.01l-.0206.0206a1.4074,1.4074,0,0,0,0,1.8509l.0206.0206.02.02.01.0309.0206.02,5.3941,5.4146a1.4337,1.4337,0,1,0,2.0228-2.0323L142.19,66.8132h7.5631c.0091,0,.0168.0052.026.0052s.0169-.0049.026-.0052a.8524.8524,0,0,0,.8295-.85V64.8142A.8522.8522,0,0,0,149.8085,63.9648Z"/>
    <path class="cls-12" d="M164.8406,66.8284c.0106,0,.0193.006.03.006s.0194-.0056.03-.006H172.46L169.45,69.8068a1.4549,1.4549,0,0,0,0,2.0033,1.44,1.44,0,0,0,2.0228,0l5.4147-5.4041.01-.0206.02-.03v-.01l.0206-.0206a1.4074,1.4074,0,0,0,0-1.8509l-.0206-.0206-.02-.02-.01-.0309-.0206-.02-5.3941-5.4146a1.4337,1.4337,0,0,0-2.0228,2.0323L172.46,63.98h-7.5631c-.0091,0-.0168-.0052-.026-.0052s-.0169.0049-.026.0052a.8524.8524,0,0,0-.8295.85V65.979A.8522.8522,0,0,0,164.8406,66.8284Z"/>
    <rect class="cls-6" x="42.6916" y="87.1358" width="353.9751" height="140.1975"/>
  </g>
  <g>
    <path d="M215.6506,60.6227h.9839v2.3281l-.0356,1.2a5.4787,5.4787,0,0,1,.876-.6777,1.9876,1.9876,0,0,1,1.0679-.2822,1.5678,1.5678,0,0,1,1.35.5762,2.8492,2.8492,0,0,1,.4258,1.7041v3.6958h-.9839v-3.564a2.0809,2.0809,0,0,0-.2642-1.1938.964.964,0,0,0-.84-.3662,1.4349,1.4349,0,0,0-.8042.228,5.21,5.21,0,0,0-.792.6719v4.2241h-.9839Z"/>
    <path d="M222.3464,64.1388h-.8638v-.7441l.9121-.06.12-1.6318h.8281v1.6318h1.5723v.8042h-1.5723v3.24a1.4829,1.4829,0,0,0,.1982.834.783.783,0,0,0,.7017.2939,1.2953,1.2953,0,0,0,.3359-.0479,2.52,2.52,0,0,0,.3242-.1079l.1919.7441a5.187,5.187,0,0,1-.522.15,2.4456,2.4456,0,0,1-.5581.0659,1.898,1.898,0,0,1-.7856-.144,1.35,1.35,0,0,1-.5161-.396,1.5482,1.5482,0,0,1-.2822-.6118,3.51,3.51,0,0,1-.084-.792Z"/>
    <path d="M226.4025,64.1388h-.8638v-.7441l.9121-.06.12-1.6318h.8281v1.6318h1.5723v.8042h-1.5723v3.24a1.4829,1.4829,0,0,0,.1982.834.783.783,0,0,0,.7017.2939,1.2953,1.2953,0,0,0,.3359-.0479,2.52,2.52,0,0,0,.3242-.1079l.1919.7441a5.187,5.187,0,0,1-.522.15,2.4456,2.4456,0,0,1-.5581.0659,1.898,1.898,0,0,1-.7856-.144,1.35,1.35,0,0,1-.5161-.396,1.5482,1.5482,0,0,1-.2822-.6118,3.51,3.51,0,0,1-.084-.792Z"/>
    <path d="M231.2741,69.6589v1.9678H230.29v-8.292h.8159l.084.6719h.0361a4.4526,4.4526,0,0,1,.87-.5757,2.162,2.162,0,0,1,.99-.24,2.257,2.257,0,0,1,.9961.21,1.9374,1.9374,0,0,1,.72.6,2.8222,2.8222,0,0,1,.438.936,4.643,4.643,0,0,1,.15,1.23,3.9921,3.9921,0,0,1-.2041,1.3262,3.0757,3.0757,0,0,1-.5518.99,2.34,2.34,0,0,1-.8042.6182,2.2745,2.2745,0,0,1-.96.21,1.9651,1.9651,0,0,1-.81-.18,4.0788,4.0788,0,0,1-.81-.4917Zm0-1.7881a2.6255,2.6255,0,0,0,.7681.4741,1.9355,1.9355,0,0,0,.66.1377,1.3966,1.3966,0,0,0,.666-.1621,1.5888,1.5888,0,0,0,.5278-.4556,2.2371,2.2371,0,0,0,.3481-.7261,3.4726,3.4726,0,0,0,.126-.9722,4.2547,4.2547,0,0,0-.084-.876,1.9638,1.9638,0,0,0-.27-.6782,1.3035,1.3035,0,0,0-.48-.438,1.486,1.486,0,0,0-.7021-.1558,1.5664,1.5664,0,0,0-.75.2041,4.3843,4.3843,0,0,0-.81.5879Z"/>
    <path d="M236.7463,64.2345a.7545.7545,0,0,1,.21-.5581.6943.6943,0,0,1,.51-.21.6823.6823,0,0,1,.498.21.7561.7561,0,0,1,.21.5581.7249.7249,0,0,1-.21.5342.68.68,0,0,1-.498.21.6924.6924,0,0,1-.51-.21A.7234.7234,0,0,1,236.7463,64.2345Zm0,4.332a.7545.7545,0,0,1,.21-.5581.6943.6943,0,0,1,.51-.21.6823.6823,0,0,1,.498.21.7561.7561,0,0,1,.21.5581.7249.7249,0,0,1-.21.5342.6823.6823,0,0,1-.498.21.6943.6943,0,0,1-.51-.21A.7234.7234,0,0,1,236.7463,68.5666Z"/>
    <path d="M242.2785,60.6466h.72l-3.2041,10.44h-.72Z"/>
    <path d="M246.4782,60.6466h.72l-3.2041,10.44h-.72Z"/>
    <path d="M250.966,61.4264a1.6138,1.6138,0,0,0-.66-.1436q-.8167,0-.8159,1.1279v.9238h1.2358v.8042H249.49v5.0278h-.9844V64.1388h-.792v-.7441l.792-.06v-.9238a2.2028,2.2028,0,0,1,.4141-1.416,1.5543,1.5543,0,0,1,1.29-.5161,2.4211,2.4211,0,0,1,.522.0542,2.71,2.71,0,0,1,.45.1377Z"/>
    <path d="M251.842,60.6227h.9839v7.44a.5168.5168,0,0,0,.084.3359.2509.2509,0,0,0,.1924.0962h.09a.5049.5049,0,0,0,.126-.0239l.1318.7437a.84.84,0,0,1-.228.0723,1.97,1.97,0,0,1-.3359.0239.92.92,0,0,1-.8037-.3359,1.6844,1.6844,0,0,1-.24-.9839Z"/>
    <path d="M254.6134,67.6545a1.6171,1.6171,0,0,1,.8584-1.47,7.09,7.09,0,0,1,2.73-.7139,2.6765,2.6765,0,0,0-.0542-.54,1.2918,1.2918,0,0,0-.1919-.4683,1.0488,1.0488,0,0,0-.3662-.33,1.2076,1.2076,0,0,0-.5879-.126,2.351,2.351,0,0,0-.9541.1924,4.727,4.727,0,0,0-.7856.4316l-.396-.6841a6.36,6.36,0,0,1,.9956-.51,3.3261,3.3261,0,0,1,1.2964-.2461,1.7918,1.7918,0,0,1,1.5479.6543,2.8873,2.8873,0,0,1,.48,1.7456v3.5762H258.37l-.084-.6958h-.0239a4.8544,4.8544,0,0,1-.9062.5938,2.2417,2.2417,0,0,1-1.0259.2461,1.7816,1.7816,0,0,1-1.23-.4321A1.5513,1.5513,0,0,1,254.6134,67.6545Zm.9722-.0718a.8353.8353,0,0,0,.2939.72,1.1952,1.1952,0,0,0,.7261.2158,1.6925,1.6925,0,0,0,.7979-.1982,3.872,3.872,0,0,0,.7983-.582v-1.62a10.23,10.23,0,0,0-1.2363.228,3.2275,3.2275,0,0,0-.81.312,1.1579,1.1579,0,0,0-.438.4136A1.0229,1.0229,0,0,0,255.5856,67.5827Z"/>
    <path d="M261.2135,64.1388H260.35v-.7441l.9121-.06.12-1.6318h.8281v1.6318h1.5723v.8042H262.21v3.24a1.4829,1.4829,0,0,0,.1982.834.783.783,0,0,0,.7017.2939,1.2953,1.2953,0,0,0,.3359-.0479,2.52,2.52,0,0,0,.3242-.1079l.1919.7441a5.187,5.187,0,0,1-.522.15,2.4456,2.4456,0,0,1-.5581.0659,1.898,1.898,0,0,1-.7856-.144,1.35,1.35,0,0,1-.5161-.396,1.5482,1.5482,0,0,1-.2822-.6118,3.51,3.51,0,0,1-.084-.792Z"/>
    <path d="M265.1017,60.6227h.9839v7.44a.5168.5168,0,0,0,.084.3359.2509.2509,0,0,0,.1924.0962h.09a.5049.5049,0,0,0,.126-.0239l.1318.7437a.84.84,0,0,1-.228.0723,1.97,1.97,0,0,1-.3359.0239.92.92,0,0,1-.8037-.3359,1.6844,1.6844,0,0,1-.24-.9839Z"/>
    <path d="M267.8732,67.6545a1.6171,1.6171,0,0,1,.8584-1.47,7.09,7.09,0,0,1,2.73-.7139,2.6765,2.6765,0,0,0-.0542-.54,1.2918,1.2918,0,0,0-.1919-.4683,1.0488,1.0488,0,0,0-.3662-.33,1.2076,1.2076,0,0,0-.5879-.126,2.351,2.351,0,0,0-.9541.1924,4.727,4.727,0,0,0-.7856.4316l-.396-.6841a6.36,6.36,0,0,1,.9956-.51,3.3261,3.3261,0,0,1,1.2964-.2461,1.7918,1.7918,0,0,1,1.5479.6543,2.8873,2.8873,0,0,1,.48,1.7456v3.5762H271.63l-.084-.6958h-.0239a4.8544,4.8544,0,0,1-.9062.5938,2.2417,2.2417,0,0,1-1.0259.2461,1.7816,1.7816,0,0,1-1.23-.4321A1.5513,1.5513,0,0,1,267.8732,67.6545Zm.9722-.0718a.8353.8353,0,0,0,.2939.72,1.1952,1.1952,0,0,0,.7261.2158,1.6925,1.6925,0,0,0,.7979-.1982,3.872,3.872,0,0,0,.7983-.582v-1.62a10.23,10.23,0,0,0-1.2363.228,3.2275,3.2275,0,0,0-.81.312,1.1579,1.1579,0,0,0-.438.4136A1.0229,1.0229,0,0,0,268.8454,67.5827Z"/>
    <path d="M274.15,67.8468a3.9355,3.9355,0,0,0,.7856.5039,2.1362,2.1362,0,0,0,.93.1919,1.24,1.24,0,0,0,.8643-.2642.8441.8441,0,0,0,.2876-.6479.6669.6669,0,0,0-.12-.396,1.1976,1.1976,0,0,0-.3062-.2939,2.2778,2.2778,0,0,0-.4258-.2222q-.24-.0952-.48-.1919-.312-.1077-.6235-.2461a2.4533,2.4533,0,0,1-.5581-.3359,1.6935,1.6935,0,0,1-.4023-.4619,1.2271,1.2271,0,0,1-.1558-.6357,1.57,1.57,0,0,1,.1382-.6543,1.4972,1.4972,0,0,1,.396-.5278,1.8747,1.8747,0,0,1,.63-.3481,2.8142,2.8142,0,0,1,1.854.0659,3.1733,3.1733,0,0,1,.7979.4683l-.4678.624a3.1622,3.1622,0,0,0-.624-.3721,1.722,1.722,0,0,0-.708-.144,1.1229,1.1229,0,0,0-.81.252.7962.7962,0,0,0-.2583.5879.5869.5869,0,0,0,.1084.354,1.0248,1.0248,0,0,0,.2876.2642,2.353,2.353,0,0,0,.4141.2041q.2344.09.4863.186.312.12.63.252a2.4008,2.4008,0,0,1,.57.33,1.62,1.62,0,0,1,.4141.4858,1.4,1.4,0,0,1,.1621.6958,1.6469,1.6469,0,0,1-.1382.6724,1.5965,1.5965,0,0,1-.4077.5518,1.9476,1.9476,0,0,1-.6724.3779,2.8254,2.8254,0,0,1-.918.1382,3.1424,3.1424,0,0,1-1.188-.228,3.6876,3.6876,0,0,1-.9839-.5762Z"/>
    <path d="M279.1291,68.5666a.7545.7545,0,0,1,.21-.5581.6943.6943,0,0,1,.51-.21.6823.6823,0,0,1,.498.21.7561.7561,0,0,1,.21.5581.7249.7249,0,0,1-.21.5342.6823.6823,0,0,1-.498.21.6943.6943,0,0,1-.51-.21A.7234.7234,0,0,1,279.1291,68.5666Z"/>
    <path d="M281.7931,66.2629a3.4867,3.4867,0,0,1,.228-1.3022,2.9229,2.9229,0,0,1,.6123-.9658,2.55,2.55,0,0,1,.894-.6,2.8682,2.8682,0,0,1,1.0737-.2041,2.17,2.17,0,0,1,.99.21,3.1624,3.1624,0,0,1,.7139.4863l-.4922.6357a2.76,2.76,0,0,0-.5459-.3721,1.3684,1.3684,0,0,0-.63-.144,1.64,1.64,0,0,0-1.3081.624,2.2824,2.2824,0,0,0-.3779.7144,2.8934,2.8934,0,0,0-.1382.918,2.9376,2.9376,0,0,0,.1323.9116,2.2005,2.2005,0,0,0,.3657.7021,1.6163,1.6163,0,0,0,.57.4561,1.7426,1.7426,0,0,0,1.4937-.0122,2.7548,2.7548,0,0,0,.6064-.4136l.4438.6479a3.2045,3.2045,0,0,1-.8823.5518,2.5875,2.5875,0,0,1-1.0137.2041,2.8457,2.8457,0,0,1-1.08-.2041,2.4278,2.4278,0,0,1-.87-.5937,2.7888,2.7888,0,0,1-.5757-.96A3.71,3.71,0,0,1,281.7931,66.2629Z"/>
    <path d="M287.0133,66.2629a3.5688,3.5688,0,0,1,.2222-1.3022,2.9576,2.9576,0,0,1,.5942-.9658,2.4837,2.4837,0,0,1,.8579-.6,2.68,2.68,0,0,1,2.0518,0,2.4947,2.4947,0,0,1,.8584.6,2.9648,2.9648,0,0,1,.5938.9658,3.5688,3.5688,0,0,1,.2222,1.3022,3.5331,3.5331,0,0,1-.2222,1.29,2.9011,2.9011,0,0,1-.5937.96,2.5305,2.5305,0,0,1-.8584.5938,2.68,2.68,0,0,1-2.0518,0,2.5192,2.5192,0,0,1-.8579-.5937,2.8941,2.8941,0,0,1-.5942-.96A3.5331,3.5331,0,0,1,287.0133,66.2629Zm1.02,0a3.22,3.22,0,0,0,.12.9116,2.155,2.155,0,0,0,.3423.7021,1.5664,1.5664,0,0,0,.5337.4561,1.5244,1.5244,0,0,0,1.3682,0,1.5725,1.5725,0,0,0,.5342-.4561,2.1641,2.1641,0,0,0,.3418-.7021,3.22,3.22,0,0,0,.12-.9116,3.2853,3.2853,0,0,0-.12-.918,2.2361,2.2361,0,0,0-.3418-.7144,1.5535,1.5535,0,0,0-.5342-.4619,1.5244,1.5244,0,0,0-1.3682,0,1.5476,1.5476,0,0,0-.5337.4619,2.2265,2.2265,0,0,0-.3423.7144A3.2853,3.2853,0,0,0,288.0334,66.2629Z"/>
    <path d="M293.6252,68.5666a.7545.7545,0,0,1,.21-.5581.6943.6943,0,0,1,.51-.21.6823.6823,0,0,1,.498.21.7561.7561,0,0,1,.21.5581.7249.7249,0,0,1-.21.5342.6823.6823,0,0,1-.498.21.6943.6943,0,0,1-.51-.21A.7234.7234,0,0,1,293.6252,68.5666Z"/>
    <path d="M296.7331,63.3346h.9961v3.564a2.1222,2.1222,0,0,0,.2578,1.1938.9493.9493,0,0,0,.834.3662,1.4086,1.4086,0,0,0,.8042-.2339,3.795,3.795,0,0,0,.7681-.75v-4.14h.9839v5.832h-.8159l-.084-.9121h-.0361a3.8834,3.8834,0,0,1-.8579.7681,1.9273,1.9273,0,0,1-1.062.2881,1.58,1.58,0,0,1-1.3618-.5762,2.8446,2.8446,0,0,1-.4263-1.7041Z"/>
    <path d="M303.3449,60.6227h.9722v5.7842h.0361l2.4839-3.0723h1.0918l-1.9561,2.34,2.22,3.4922h-1.08l-1.7041-2.8081-1.0918,1.272v1.5361h-.9722Z"/>
  </g>
  <g>
    <g class="cls-13">
      <g class="cls-14">
        <rect class="cls-15" x="199.3005" y="56.589" width="9.0012" height="13.2275"/>
      </g>
    </g>
    <g>
      <path class="cls-16" d="M207.6441,65.783l.1217-8.6067-7.2774,2.209a2.5213,2.5213,0,0,0-1.03.5423l.0811,9.4957C199.8678,69.2668,207.6441,65.783,207.6441,65.783Z"/>
      <g class="cls-17">
        <g>
          <rect class="cls-4" x="147.6788" y="43.9606" width="74.704" height="42.8627"/>
          <g class="cls-18">
            <rect class="cls-4" x="199.3589" y="57.0917" width="8.5064" height="12.4163"/>
          </g>
        </g>
      </g>
    </g>
    <g>
      <path class="cls-16" d="M207.9436,66.035l.1206-8.6056s-7,1.9046-7.5852,2.0735a2.1643,2.1643,0,0,0-1.02.5328l.08,9.4965C199.8641,69.3787,207.9436,66.035,207.9436,66.035Z"/>
      <g class="cls-19">
        <g>
          <rect class="cls-4" x="147.6788" y="43.9606" width="74.704" height="42.8627"/>
          <g class="cls-18">
            <rect class="cls-4" x="199.3591" y="57.3447" width="8.8047" height="12.2721"/>
          </g>
        </g>
      </g>
    </g>
    <g class="cls-20">
      <g class="cls-14">
        <rect class="cls-6" x="199.359" y="57.9743" width="9.4924" height="11.6875"/>
      </g>
    </g>
    <g>
      <path class="cls-21" d="M208.3,66.3092l.1253-8.6057s-7.3419,1.713-7.9069,1.8849a2.6915,2.6915,0,0,0-1.06.49l.0835,9.4964C199.88,69.4215,208.3,66.3092,208.3,66.3092Z"/>
      <g class="cls-22">
        <g>
          <rect class="cls-6" x="147.6788" y="43.9606" width="74.704" height="42.8627"/>
          <g class="cls-23">
            <rect class="cls-6" x="199.3589" y="57.6189" width="9.1659" height="12.041"/>
          </g>
        </g>
      </g>
    </g>
    <g>
      <path class="cls-16" d="M208.861,67.0487l.104-8.6381s-7.8307,1.24-8.446,1.3744-.9295.1693-1.06.3156l.0825,9.4974C199.8749,69.448,208.861,67.0487,208.861,67.0487Z"/>
      <g class="cls-24">
        <g>
          <rect class="cls-4" x="147.6788" y="43.9606" width="74.704" height="42.8627"/>
          <g class="cls-18">
            <rect class="cls-4" x="199.3589" y="58.3598" width="9.7255" height="11.3228"/>
          </g>
        </g>
      </g>
    </g>
    <g>
      <path class="cls-16" d="M209.0122,67.1084l.1189-8.3646s-8.3308,1.0543-8.6547,1.1035a3.04,3.04,0,0,0-1.0179.2628l.0792,9.2288C199.8582,69.1871,209.0122,67.1084,209.0122,67.1084Z"/>
      <g class="cls-25">
        <g>
          <rect class="cls-4" x="147.6788" y="43.9606" width="74.704" height="42.8627"/>
          <g class="cls-18">
            <rect class="cls-4" x="199.3589" y="58.6592" width="9.8718" height="10.7644"/>
          </g>
        </g>
      </g>
    </g>
    <g>
      <path class="cls-21" d="M209.149,67.8558l.1043-8.72s-8.5593.7277-8.8275.7525a2.6427,2.6427,0,0,0-.9673.2216l.0753,9.2287C199.8383,69.1868,209.149,67.8558,209.149,67.8558Z"/>
      <g class="cls-26">
        <g>
          <rect class="cls-6" x="147.6788" y="43.9606" width="74.704" height="42.8627"/>
          <g class="cls-23">
            <rect class="cls-6" x="199.3589" y="59.0515" width="9.994" height="10.372"/>
          </g>
        </g>
      </g>
    </g>
    <g>
      <path class="cls-21" d="M209.1994,68.2076l.1508-8.7221s-8.6915.4451-8.9046.4451a3.3154,3.3154,0,0,0-.987.18l.0768,9.2287Z"/>
      <g class="cls-27">
        <g>
          <rect class="cls-6" x="147.6788" y="43.9606" width="74.704" height="42.8627"/>
          <g class="cls-23">
            <rect class="cls-6" x="199.3591" y="59.4009" width="10.0907" height="10.0227"/>
          </g>
        </g>
      </g>
    </g>
    <g>
      <path class="cls-16" d="M209.3018,68.8866l.0983-8.9993s-8.89.114-8.9339.1129a3.4819,3.4819,0,0,0-1.0076.11l.0784,9.2308Z"/>
      <g class="cls-28">
        <g>
          <rect class="cls-4" x="147.6788" y="43.9606" width="74.704" height="42.8627"/>
          <g class="cls-18">
            <rect class="cls-4" x="199.3589" y="59.8026" width="10.1407" height="9.6234"/>
          </g>
        </g>
      </g>
    </g>
    <g>
      <path class="cls-16" d="M209.2153,69.4882l.1307-9.1544s-8.7679-.2664-8.8747-.2714a4.3714,4.3714,0,0,0-1.0128.0482l.0788,9.2324Z"/>
      <g class="cls-29">
        <g>
          <rect class="cls-4" x="147.6788" y="43.9606" width="74.704" height="42.8627"/>
          <g class="cls-18">
            <rect class="cls-4" x="199.3589" y="59.971" width="10.0867" height="9.6019"/>
          </g>
        </g>
      </g>
    </g>
    <g>
      <path class="cls-21" d="M209.2025,70.041l.1895-9.2114s-9.0584-.7194-9.103-.7221a2.8652,2.8652,0,0,0-.83.0034l.08,9.2336Z"/>
      <g class="cls-30">
        <g>
          <rect class="cls-6" x="147.6788" y="43.9606" width="74.704" height="42.8627"/>
          <g class="cls-23">
            <rect class="cls-6" x="199.3589" y="59.9924" width="10.1326" height="10.1332"/>
          </g>
        </g>
      </g>
    </g>
    <g>
      <path class="cls-21" d="M209.2,70.5558l.1462-9.2611s-8.6127-1.0677-8.83-1.0955a6.8837,6.8837,0,0,0-1.0579-.0881l.0823,9.2348C199.8739,69.2184,209.2,70.5558,209.2,70.5558Z"/>
      <g class="cls-31">
        <g>
          <rect class="cls-6" x="147.6788" y="43.9606" width="74.704" height="42.8627"/>
          <g class="cls-23">
            <rect class="cls-6" x="199.3589" y="60.0227" width="10.0867" height="10.6177"/>
          </g>
        </g>
      </g>
    </g>
    <g>
      <path class="cls-16" d="M209.1621,71.3954l.12-9.5829s-8.3022-1.4441-8.7364-1.5178c-.1832-.0311-.8437-.1561-1.0869-.1933l.0839,9.5034Z"/>
      <g class="cls-32">
        <g>
          <rect class="cls-4" x="147.6788" y="43.9606" width="74.704" height="42.8627"/>
          <g class="cls-18">
            <rect class="cls-4" x="199.3589" y="60.0169" width="10.0224" height="11.4632"/>
          </g>
        </g>
      </g>
    </g>
    <g>
      <path class="cls-16" d="M209.1341,72.0366l.079-9.7236s-8.4274-1.8524-8.662-1.913-.8193-.22-1.0925-.32l.0858,9.527Z"/>
      <g class="cls-33">
        <g>
          <rect class="cls-4" x="147.6788" y="43.9606" width="74.704" height="42.8627"/>
          <g class="cls-18">
            <rect class="cls-4" x="199.3589" y="59.9955" width="9.9537" height="12.1257"/>
          </g>
        </g>
      </g>
    </g>
    <g>
      <path class="cls-21" d="M209.1311,72.8855V62.83s-8.2121-2.2038-8.54-2.2932a7.4473,7.4473,0,0,1-1.1329-.4346l.0878,9.5083C199.9017,69.5049,209.1311,72.8855,209.1311,72.8855Z"/>
      <g class="cls-34">
        <g>
          <rect class="cls-6" x="147.6788" y="43.9606" width="74.704" height="42.8627"/>
          <g class="cls-23">
            <rect class="cls-6" x="199.3589" y="60.0175" width="9.8718" height="12.9526"/>
          </g>
        </g>
      </g>
    </g>
    <g>
      <path class="cls-21" d="M208.9585,73.4152V63.36s-8.2334-2.5856-8.4766-2.66a2.6774,2.6774,0,0,1-1.0239-.5648l-.0259,9.9234C199.5259,70.5135,208.9585,73.4152,208.9585,73.4152Z"/>
      <g class="cls-35">
        <g>
          <rect class="cls-6" x="147.6788" y="43.9606" width="74.704" height="42.8627"/>
          <g class="cls-23">
            <rect class="cls-6" x="199.3326" y="60.0506" width="9.7256" height="13.3307"/>
          </g>
        </g>
      </g>
    </g>
    <g class="cls-36">
      <g class="cls-14">
        <rect class="cls-15" x="199.3005" y="59.9071" width="9.7189" height="14.0844"/>
      </g>
    </g>
  </g>
</svg>
