<svg id="Layer_1" data-name="Layer 1" xmlns="http://www.w3.org/2000/svg" xmlns:xlink="http://www.w3.org/1999/xlink" width="374.0376" height="644.5885" viewBox="0 0 374.0376 644.5885">
  <defs>
    <style>
      .cls-1, .cls-2 {
        fill: none;
      }

      .cls-1, .cls-3, .cls-5 {
        clip-rule: evenodd;
      }

      .cls-10, .cls-3, .cls-4 {
        fill: #f1a43e;
      }

      .cls-15, .cls-5, .cls-6 {
        fill: #fff;
      }

      .cls-7 {
        clip-path: url(#clip-path);
      }

      .cls-8 {
        clip-path: url(#clip-path-2);
      }

      .cls-9 {
        fill: #444;
      }

      .cls-10, .cls-15 {
        fill-rule: evenodd;
      }

      .cls-11 {
        clip-path: url(#clip-path-3);
      }

      .cls-12 {
        clip-path: url(#clip-path-4);
      }

      .cls-13 {
        clip-path: url(#clip-path-5);
      }

      .cls-14 {
        clip-path: url(#clip-path-7);
      }

      .cls-16 {
        clip-path: url(#clip-path-9);
      }

      .cls-17 {
        clip-path: url(#clip-path-10);
      }

      .cls-18 {
        clip-path: url(#clip-path-11);
      }

      .cls-19 {
        clip-path: url(#clip-path-13);
      }

      .cls-20 {
        clip-path: url(#clip-path-15);
      }

      .cls-21 {
        clip-path: url(#clip-path-17);
      }

      .cls-22 {
        clip-path: url(#clip-path-19);
      }

      .cls-23 {
        clip-path: url(#clip-path-21);
      }

      .cls-24 {
        clip-path: url(#clip-path-23);
      }

      .cls-25 {
        clip-path: url(#clip-path-25);
      }

      .cls-26 {
        clip-path: url(#clip-path-27);
      }

      .cls-27 {
        clip-path: url(#clip-path-29);
      }

      .cls-28 {
        clip-path: url(#clip-path-31);
      }

      .cls-29 {
        clip-path: url(#clip-path-33);
      }

      .cls-30 {
        clip-path: url(#clip-path-35);
      }
    </style>
    <clipPath id="clip-path">
      <path class="cls-1" d="M324.5865,341.2713,329.23,0,41.347,92.9078C16.6922,101.2118,0,105.1782,0,129.7854v358.642c4.6439-22.03,20.8973-34.5074,48.76-50.4264Z"/>
    </clipPath>
    <clipPath id="clip-path-2">
      <rect class="cls-2" x="-1934.5679" y="-475.5166" width="2794.2104" height="1603.2257"/>
    </clipPath>
    <clipPath id="clip-path-3">
      <path class="cls-3" d="M308.3577,340.7244l4.5537-321.9228L40.7108,101.4261C19.2525,108.62,7.0038,116.141,2.1879,121.7087L5.2227,476.8853C17.4961,471.0312,308.3577,340.7244,308.3577,340.7244Z"/>
    </clipPath>
    <clipPath id="clip-path-4">
      <rect class="cls-4" x="-1934.5679" y="-475.5166" width="2794.2104" height="1603.2257"/>
    </clipPath>
    <clipPath id="clip-path-5">
      <path class="cls-3" d="M319.5614,350.1473l4.5119-321.8807S62.2362,99.5063,40.3585,105.8245,6.965,120.2282,2.1938,125.7514L5.2,480.956C17.36,475.2153,319.5614,350.1473,319.5614,350.1473Z"/>
    </clipPath>
    <clipPath id="clip-path-7">
      <path class="cls-1" d="M344.9952,373.6048l4.7974-321.7906s-285.83,55.3985-307.02,60.4352S7.2645,121.9474,2.1909,127.3754L5.3881,482.64C18.3169,477.1422,344.9952,373.6048,344.9952,373.6048Z"/>
    </clipPath>
    <clipPath id="clip-path-9">
      <path class="cls-5" d="M332.8932,360.4047,337.58,38.52S62.964,102.5917,41.8305,109.0247,7.1438,121.8393,2.1879,127.3664L5.3106,482.5686C17.9407,476.8182,332.8932,360.4047,332.8932,360.4047Z"/>
    </clipPath>
    <clipPath id="clip-path-10">
      <rect class="cls-6" x="-1934.5679" y="-475.5166" width="2794.2104" height="1603.2257"/>
    </clipPath>
    <clipPath id="clip-path-11">
      <path class="cls-3" d="M353.877,388.0655l3.8885-323.0976S64.87,111.3414,41.8543,116.3748,7.088,122.7085,2.1879,128.1794L5.2748,483.417C17.762,477.81,353.877,388.0655,353.877,388.0655Z"/>
    </clipPath>
    <clipPath id="clip-path-13">
      <path class="cls-3" d="M359.5325,390.2989,363.98,77.4313s-311.6025,39.434-323.7195,41.275-32.0809,4.9-38.0731,9.8315L5.1512,473.7291C17.1363,468.0475,359.5325,390.2989,359.5325,390.2989Z"/>
    </clipPath>
    <clipPath id="clip-path-15">
      <path class="cls-5" d="M364.6493,418.2522,368.55,92.1059s-320.15,27.22-330.1817,28.1448-30.7929,3.6435-36.1809,8.2869L5.0044,473.7268C16.3935,468.0373,364.6493,418.2522,364.6493,418.2522Z"/>
    </clipPath>
    <clipPath id="clip-path-17">
      <path class="cls-5" d="M366.5318,431.4126l5.642-326.24S47.0807,121.8206,39.11,121.8206s-31.9356,3.4-36.9169,6.717L5.0662,473.7268Z"/>
    </clipPath>
    <clipPath id="clip-path-19">
      <path class="cls-3" d="M370.362,456.8076l3.6755-336.6089s-332.5341,4.2648-334.16,4.221C31.74,124.2,9.0091,125.1942,2.1879,128.55L5.1214,473.8188Z"/>
    </clipPath>
    <clipPath id="clip-path-21">
      <path class="cls-3" d="M367.1292,479.3134l4.89-342.4078s-327.9506-9.9634-331.9479-10.15c-8.1793-.3827-31.1438-.688-37.8838,1.8046L5.1363,473.8869Z"/>
    </clipPath>
    <clipPath id="clip-path-23">
      <path class="cls-5" d="M366.6509,499.9893,373.7373,155.45S34.92,128.5411,33.25,128.44c-8.3506-.5057-25.615-2.3587-31.0626.1263l3.01,345.3715Z"/>
    </clipPath>
    <clipPath id="clip-path-25">
      <path class="cls-5" d="M366.55,519.242,372.02,172.8409S49.8726,132.9031,41.7559,131.8662s-29.338-4.1291-39.5681-3.2937l3.08,345.4167C17.7232,469.22,366.55,519.242,366.55,519.242Z"/>
    </clipPath>
    <clipPath id="clip-path-27">
      <path class="cls-3" d="M365.1387,550.6492l4.4748-358.4346S59.0814,138.2,42.8406,135.4435c-6.8533-1.1634-31.5587-5.8383-40.6527-7.23L5.3262,483.6776Z"/>
    </clipPath>
    <clipPath id="clip-path-29">
      <path class="cls-3" d="M364.0891,574.6312l2.9537-363.701S51.8273,141.6442,43.0514,139.3779c-8.75-2.26-30.6454-8.2171-40.8635-11.9625L5.3984,483.76Z"/>
    </clipPath>
    <clipPath id="clip-path-31">
      <path class="cls-5" d="M363.98,606.3815V230.2653S56.8176,147.8344,44.5621,144.4929A278.5583,278.5583,0,0,1,2.1879,128.2378L5.4737,483.885C18.7631,479.9344,363.98,606.3815,363.98,606.3815Z"/>
    </clipPath>
    <clipPath id="clip-path-33">
      <path class="cls-5" d="M357.5241,626.1954V250.0792S49.5636,153.3678,40.4658,150.6015c-9.0709-2.7582-27.0936-9.907-38.2958-21.1252L1.2009,500.648C4.7087,517.6614,357.5241,626.1954,357.5241,626.1954Z"/>
    </clipPath>
    <clipPath id="clip-path-35">
      <path class="cls-1" d="M32.7767,191.6594v52.2819l62.3241,22.89v-52.282ZM137.066,230.2837v52.2819l62.3241,22.89v-52.282Zm104.2894,38.6243V321.19L303.68,344.08V291.798ZM32.7767,273.9735v52.2819l62.3241,22.89v-52.282ZM137.066,312.5979V364.88L199.39,387.77v-52.282Zm104.2894,38.6243v52.2819l62.3241,22.89v-52.282ZM32.7767,356.2876V408.57l62.3241,22.89v-52.282ZM137.066,394.9119v52.2819l62.3241,22.89v-52.282Zm104.2894,38.6243v52.2819l62.3241,22.89v-52.282Zm109.3638-164.79,5.3545,375.8421L202.99,589.41V518.4207c0-3.2248-1.6008-8.4432-8.2069-10.9264l-54.1449-19.8767c-5.22-3.0494-11.991.1862-11.991,3.3607v71.2074L47.6744,532.2471C13.3863,518.4432,0,504.444,0,483.6259V124.11c5.3545,21.29,24.0953,27.0628,56.2224,38.538Z"/>
    </clipPath>
  </defs>
  <title>Favicon</title>
  <g>
    <g class="cls-7">
      <g class="cls-8">
        <rect class="cls-9" x="-3.7246" y="-3.1659" width="336.6797" height="494.7592"/>
      </g>
    </g>
    <g>
      <path class="cls-10" d="M308.3577,340.7244l4.5537-321.9228L40.7108,101.4261C19.2525,108.62,7.0038,116.141,2.1879,121.7087L5.2227,476.8853C17.4961,471.0312,308.3577,340.7244,308.3577,340.7244Z"/>
      <g class="cls-11">
        <g>
          <rect class="cls-4" x="-1934.5679" y="-475.5166" width="2794.2104" height="1603.2257"/>
          <g class="cls-12">
            <rect class="cls-4" x="-1.5368" y="15.6357" width="318.1732" height="464.4155"/>
          </g>
        </g>
      </g>
    </g>
    <g>
      <path class="cls-10" d="M319.5614,350.1473l4.5119-321.8807S62.2362,99.5063,40.3585,105.8245,6.965,120.2282,2.1938,125.7514L5.2,480.956C17.36,475.2153,319.5614,350.1473,319.5614,350.1473Z"/>
      <g class="cls-13">
        <g>
          <rect class="cls-4" x="-1934.5679" y="-475.5166" width="2794.2104" height="1603.2257"/>
          <g class="cls-12">
            <rect class="cls-4" x="-1.5309" y="25.1006" width="329.3288" height="459.0214"/>
          </g>
        </g>
      </g>
    </g>
    <g class="cls-14">
      <g class="cls-8">
        <rect class="cls-6" x="-1.5338" y="48.6482" width="355.051" height="437.1578"/>
      </g>
    </g>
    <g>
      <path class="cls-15" d="M332.8932,360.4047,337.58,38.52S62.964,102.5917,41.8305,109.0247,7.1438,121.8393,2.1879,127.3664L5.3106,482.5686C17.9407,476.8182,332.8932,360.4047,332.8932,360.4047Z"/>
      <g class="cls-16">
        <g>
          <rect class="cls-6" x="-1934.5679" y="-475.5166" width="2794.2104" height="1603.2257"/>
          <g class="cls-17">
            <rect class="cls-6" x="-1.5368" y="35.3545" width="342.841" height="450.3799"/>
          </g>
        </g>
      </g>
    </g>
    <g>
      <path class="cls-10" d="M353.877,388.0655l3.8885-323.0976S64.87,111.3414,41.8543,116.3748,7.088,122.7085,2.1879,128.1794L5.2748,483.417C17.762,477.81,353.877,388.0655,353.877,388.0655Z"/>
      <g class="cls-18">
        <g>
          <rect class="cls-4" x="-1934.5679" y="-475.5166" width="2794.2104" height="1603.2257"/>
          <g class="cls-12">
            <rect class="cls-4" x="-1.5368" y="63.0683" width="363.7718" height="423.5146"/>
          </g>
        </g>
      </g>
    </g>
    <g>
      <path class="cls-10" d="M359.5325,390.2989,363.98,77.4313s-311.6025,39.434-323.7195,41.275-32.0809,4.9-38.0731,9.8315L5.1512,473.7291C17.1363,468.0475,359.5325,390.2989,359.5325,390.2989Z"/>
      <g class="cls-19">
        <g>
          <rect class="cls-4" x="-1934.5679" y="-475.5166" width="2794.2104" height="1603.2257"/>
          <g class="cls-12">
            <rect class="cls-4" x="-1.5368" y="74.2653" width="369.2418" height="402.6296"/>
          </g>
        </g>
      </g>
    </g>
    <g>
      <path class="cls-15" d="M364.6493,418.2522,368.55,92.1059s-320.15,27.22-330.1817,28.1448-30.7929,3.6435-36.1809,8.2869L5.0044,473.7268C16.3935,468.0373,364.6493,418.2522,364.6493,418.2522Z"/>
      <g class="cls-20">
        <g>
          <rect class="cls-6" x="-1934.5679" y="-475.5166" width="2794.2104" height="1603.2257"/>
          <g class="cls-17">
            <rect class="cls-6" x="-1.5368" y="88.94" width="373.8119" height="387.9527"/>
          </g>
        </g>
      </g>
    </g>
    <g>
      <path class="cls-15" d="M366.5318,431.4126l5.642-326.24S47.0807,121.8206,39.11,121.8206s-31.9356,3.4-36.9169,6.717L5.0662,473.7268Z"/>
      <g class="cls-21">
        <g>
          <rect class="cls-6" x="-1934.5679" y="-475.5166" width="2794.2104" height="1603.2257"/>
          <g class="cls-17">
            <rect class="cls-6" x="-1.5316" y="102.0068" width="377.43" height="374.8859"/>
          </g>
        </g>
      </g>
    </g>
    <g>
      <path class="cls-10" d="M370.362,456.8076l3.6755-336.6089s-332.5341,4.2648-334.16,4.221C31.74,124.2,9.0091,125.1942,2.1879,128.55L5.1214,473.8188Z"/>
      <g class="cls-22">
        <g>
          <rect class="cls-4" x="-1934.5679" y="-475.5166" width="2794.2104" height="1603.2257"/>
          <g class="cls-12">
            <rect class="cls-4" x="-1.5368" y="117.0327" width="379.299" height="359.952"/>
          </g>
        </g>
      </g>
    </g>
    <g>
      <path class="cls-10" d="M367.1292,479.3134l4.89-342.4078s-327.9506-9.9634-331.9479-10.15c-8.1793-.3827-31.1438-.688-37.8838,1.8046L5.1363,473.8869Z"/>
      <g class="cls-23">
        <g>
          <rect class="cls-4" x="-1934.5679" y="-475.5166" width="2794.2104" height="1603.2257"/>
          <g class="cls-12">
            <rect class="cls-4" x="-1.5368" y="123.3324" width="377.281" height="359.1469"/>
          </g>
        </g>
      </g>
    </g>
    <g>
      <path class="cls-15" d="M366.6509,499.9893,373.7373,155.45S34.92,128.5411,33.25,128.44c-8.3506-.5057-25.615-2.3587-31.0626.1263l3.01,345.3715Z"/>
      <g class="cls-24">
        <g>
          <rect class="cls-6" x="-1934.5679" y="-475.5166" width="2794.2104" height="1603.2257"/>
          <g class="cls-17">
            <rect class="cls-6" x="-1.5368" y="124.1347" width="378.9987" height="379.0205"/>
          </g>
        </g>
      </g>
    </g>
    <g>
      <path class="cls-15" d="M366.55,519.242,372.02,172.8409S49.8726,132.9031,41.7559,131.8662s-29.338-4.1291-39.5681-3.2937l3.08,345.4167C17.7232,469.22,366.55,519.242,366.55,519.242Z"/>
      <g class="cls-25">
        <g>
          <rect class="cls-6" x="-1934.5679" y="-475.5166" width="2794.2104" height="1603.2257"/>
          <g class="cls-17">
            <rect class="cls-6" x="-1.5368" y="125.265" width="377.281" height="397.1429"/>
          </g>
        </g>
      </g>
    </g>
    <g>
      <path class="cls-10" d="M365.1387,550.6492l4.4748-358.4346S59.0814,138.2,42.8406,135.4435c-6.8533-1.1634-31.5587-5.8383-40.6527-7.23L5.3262,483.6776Z"/>
      <g class="cls-26">
        <g>
          <rect class="cls-4" x="-1934.5679" y="-475.5166" width="2794.2104" height="1603.2257"/>
          <g class="cls-12">
            <rect class="cls-4" x="-1.5368" y="125.0477" width="374.8749" height="428.7674"/>
          </g>
        </g>
      </g>
    </g>
    <g>
      <path class="cls-10" d="M364.0891,574.6312l2.9537-363.701S51.8273,141.6442,43.0514,139.3779c-8.75-2.26-30.6454-8.2171-40.8635-11.9625L5.3984,483.76Z"/>
      <g class="cls-27">
        <g>
          <rect class="cls-4" x="-1934.5679" y="-475.5166" width="2794.2104" height="1603.2257"/>
          <g class="cls-12">
            <rect class="cls-4" x="-1.5368" y="124.2495" width="372.3042" height="453.5476"/>
          </g>
        </g>
      </g>
    </g>
    <g>
      <path class="cls-15" d="M363.98,606.3815V230.2653S56.8176,147.8344,44.5621,144.4929A278.5583,278.5583,0,0,1,2.1879,128.2378L5.4737,483.885C18.7631,479.9344,363.98,606.3815,363.98,606.3815Z"/>
      <g class="cls-28">
        <g>
          <rect class="cls-6" x="-1934.5679" y="-475.5166" width="2794.2104" height="1603.2257"/>
          <g class="cls-17">
            <rect class="cls-6" x="-1.5368" y="125.0718" width="369.2418" height="484.4755"/>
          </g>
        </g>
      </g>
    </g>
    <g>
      <path class="cls-15" d="M357.5241,626.1954V250.0792S49.5636,153.3678,40.4658,150.6015c-9.0709-2.7582-27.0936-9.907-38.2958-21.1252L1.2009,500.648C4.7087,517.6614,357.5241,626.1954,357.5241,626.1954Z"/>
      <g class="cls-29">
        <g>
          <rect class="cls-6" x="-1934.5679" y="-475.5166" width="2794.2104" height="1603.2257"/>
          <g class="cls-17">
            <rect class="cls-6" x="-2.5238" y="126.3103" width="363.7725" height="498.6187"/>
          </g>
        </g>
      </g>
    </g>
    <g class="cls-30">
      <g class="cls-8">
        <rect class="cls-9" x="-3.7246" y="120.9441" width="363.523" height="526.8103"/>
      </g>
    </g>
  </g>
</svg>
