<svg id="Layer_1" data-name="Layer 1" xmlns="http://www.w3.org/2000/svg" xmlns:xlink="http://www.w3.org/1999/xlink" width="1102.77" height="744.39" viewBox="0 0 1102.77 744.39"><defs><clipPath id="clip-path"><path d="M891.6,379.24l1.83-158.46L779.82,263.92c-9.73,3.86-16.32,5.7-16.32,17.12V447.57c1.83-10.23,8.25-16,19.24-23.41Z" fill="#fff" clip-rule="evenodd"/></clipPath><clipPath id="clip-path-2"><rect width="1102.77" height="744.39" fill="#fff"/></clipPath><clipPath id="clip-path-3"><path d="M885.2,379,887,229.52,779.57,267.88c-8.47,3.34-13.3,6.83-15.2,9.42l1.2,164.91C770.41,439.49,885.2,379,885.2,379Z" fill="#fff" clip-rule="evenodd"/></clipPath><clipPath id="clip-path-5"><path d="M889.62,383.36l1.78-149.45s-103.34,33.08-112,36-13.18,6.69-15.06,9.25l1.19,164.92C770.35,441.43,889.62,383.36,889.62,383.36Z" clip-rule="evenodd"/></clipPath><clipPath id="clip-path-6"><rect width="1102.77" height="744.39"/></clipPath><clipPath id="clip-path-7"><path d="M894.88,388.13l1.85-149.45S788.35,268.42,780,271.41s-13.69,5.95-15.65,8.52l1.23,164.92C770.58,442.18,894.88,388.13,894.88,388.13Z" fill="#fff" clip-rule="evenodd"/></clipPath><clipPath id="clip-path-9"><path d="M899.66,394.26l1.89-149.41s-112.81,25.72-121.17,28.06-14,4.5-16,7l1.26,165C770.73,442.33,899.66,394.26,899.66,394.26Z" clip-rule="evenodd"/></clipPath><clipPath id="clip-path-11"><path d="M903.16,401,905,251.54S789.1,272.48,780,274.82s-13.72,2.94-15.65,5.48l1.22,164.94C770.51,442.64,903.16,401,903.16,401Z" fill="#fff" clip-rule="evenodd"/></clipPath><clipPath id="clip-path-13"><path d="M905.4,402l1.76-145.27S784.17,275,779.39,275.9s-12.66,2.28-15,4.56l1.17,160.28C770.27,438.11,905.4,402,905.4,402Z" clip-rule="evenodd"/></clipPath><clipPath id="clip-path-15"><path d="M907.42,415,909,263.55S782.6,276.19,778.65,276.62s-12.15,1.69-14.28,3.85l1.11,160.27C770,438.1,907.42,415,907.42,415Z" fill="#fff" clip-rule="evenodd"/></clipPath><clipPath id="clip-path-17"><path d="M908.16,421.1l2.23-151.48s-128.3,7.73-131.45,7.73-12.6,1.58-14.57,3.12l1.13,160.27Z" clip-rule="evenodd"/></clipPath><clipPath id="clip-path-19"><path d="M909.67,432.89l1.45-156.29s-131.24,2-131.88,2c-3.21-.1-12.18.36-14.87,1.92l1.16,160.31Z" fill="#fff" clip-rule="evenodd"/></clipPath><clipPath id="clip-path-21"><path d="M908.39,443.34l1.93-159s-129.43-4.63-131-4.71c-3.23-.18-12.29-.32-15,.84l1.16,160.34Z" clip-rule="evenodd"/></clipPath><clipPath id="clip-path-23"><path d="M908.21,452.94,911,293s-133.72-12.49-134.38-12.54c-3.3-.23-10.11-1.1-12.26.06l1.19,160.36Z" fill="#fff" clip-rule="evenodd"/></clipPath><clipPath id="clip-path-25"><path d="M908.17,461.88,910.32,301S783.19,282.5,780,282s-11.58-1.92-15.62-1.53l1.22,160.38C770.5,438.65,908.17,461.88,908.17,461.88Z" clip-rule="evenodd"/></clipPath><clipPath id="clip-path-27"><path d="M907.61,476.46,909.38,310s-122.56-25.08-129-26.36c-2.7-.54-12.46-2.71-16-3.36l1.24,165Z" fill="#fff" clip-rule="evenodd"/></clipPath><clipPath id="clip-path-29"><path d="M907.2,487.59l1.17-168.87S784,286.55,780.49,285.5s-12.09-3.82-16.13-5.55l1.27,165.45Z" clip-rule="evenodd"/></clipPath><clipPath id="clip-path-31"><path d="M907.15,502.34V327.7s-121.23-38.27-126.06-39.82a100.5,100.5,0,0,1-16.72-7.55l1.3,165.13C770.91,443.63,907.15,502.34,907.15,502.34Z" fill="#fff" clip-rule="evenodd"/></clipPath><clipPath id="clip-path-33"><path d="M904.6,509.48V334.84S783.06,292,779.47,290.71s-10.69-4.6-15.11-9.81L764,453.24C765.36,461.14,904.6,509.48,904.6,509.48Z" clip-rule="evenodd"/></clipPath><clipPath id="clip-path-35"><path d="M776.44,309.78v24.28L801,344.68V320.4Zm41.16,17.93V352l24.6,10.63V338.34Zm41.16,17.93v24.27l24.6,10.63V356.27ZM776.44,348v24.27L801,382.9V358.62Zm41.16,17.93V390.2l24.6,10.63V376.56Zm41.16,17.93v24.28l24.6,10.63V394.49Zm-82.32,2.35v24.28L801,421.12V396.84Zm41.16,17.93v24.28l24.6,10.63V414.78Zm41.16,17.93v24.28L883.35,457V432.71Zm43.16-76.51L904,520.08l-60.42-25.62v-33a5.43,5.43,0,0,0-3.24-5.07L819,447.19c-2.06-1.42-4.73.09-4.73,1.56v33.06l-32-13.9c-13.53-6.41-18.82-12.91-18.82-22.58V278.41c2.11,9.89,9.51,12.57,22.19,17.89Z" fill="#fff" clip-rule="evenodd"/></clipPath><clipPath id="clip-path-37"><path d="M1701.74,383.3l2.3-168.71-142.32,45.93c-12.19,4.11-20.44,6.07-20.44,18.23v177.3c2.3-10.89,10.33-17.06,24.11-24.93Z" fill="none" clip-rule="evenodd"/></clipPath><clipPath id="clip-path-38"><path d="M1693.72,383,1696,223.88,1561.4,264.73c-10.61,3.56-16.66,7.27-19,10l1.5,175.59C1549.93,447.45,1693.72,383,1693.72,383Z" fill="#f1a43e" clip-rule="evenodd"/></clipPath><clipPath id="clip-path-39"><path d="M1699.26,387.69l2.23-159.13S1572,263.78,1561.23,266.9s-16.51,7.12-18.87,9.85l1.49,175.6C1549.86,449.52,1699.26,387.69,1699.26,387.69Z" fill="none" clip-rule="evenodd"/></clipPath><clipPath id="clip-path-40"><path d="M1705.85,392.76l2.32-159.13S1572.4,265.3,1562,268.48s-17.15,6.34-19.6,9.07l1.54,175.6C1550.15,450.31,1705.85,392.76,1705.85,392.76Z" fill="#f1a43e" clip-rule="evenodd"/></clipPath><clipPath id="clip-path-41"><path d="M1711.83,399.29l2.37-159.08s-141.31,27.39-151.78,29.88-17.55,4.79-20.06,7.48l1.58,175.63C1550.33,450.47,1711.83,399.29,1711.83,399.29Z" fill="none" clip-rule="evenodd"/></clipPath><clipPath id="clip-path-42"><path d="M1716.22,406.43l1.92-159.73s-144.8,22.93-156.18,25.41-17.19,3.13-19.61,5.84l1.53,175.62C1550.06,450.8,1716.22,406.43,1716.22,406.43Z" fill="#f1a43e" clip-rule="evenodd"/></clipPath><clipPath id="clip-path-43"><path d="M1719,407.54l2.2-154.67s-154,19.5-160,20.41-15.86,2.42-18.82,4.86l1.46,170.65C1549.75,446,1719,407.54,1719,407.54Z" fill="none" clip-rule="evenodd"/></clipPath><clipPath id="clip-path-44"><path d="M1721.55,421.36l1.93-161.24S1565.2,273.58,1560.24,274s-15.22,1.8-17.89,4.1l1.39,170.65C1549.38,446,1721.55,421.36,1721.55,421.36Z" fill="#f1a43e" clip-rule="evenodd"/></clipPath><clipPath id="clip-path-45"><path d="M1722.48,427.86l2.79-161.28s-160.72,8.23-164.66,8.23-15.79,1.68-18.25,3.32l1.42,170.65Z" fill="none" clip-rule="evenodd"/></clipPath><clipPath id="clip-path-46"><path d="M1724.37,440.42,1726.19,274s-164.4,2.11-165.2,2.09c-4-.11-15.26.38-18.63,2l1.45,170.69Z" fill="#f1a43e" clip-rule="evenodd"/></clipPath><clipPath id="clip-path-47"><path d="M1722.77,451.54l2.42-169.28s-162.13-4.93-164.11-5c-4-.19-15.4-.34-18.73.89l1.46,170.72Z" fill="none" clip-rule="evenodd"/></clipPath><clipPath id="clip-path-48"><path d="M1722.54,461.77l3.5-170.33s-167.5-13.3-168.33-13.35c-4.13-.25-12.66-1.17-15.36.06l1.49,170.74Z" fill="#f1a43e" clip-rule="evenodd"/></clipPath><clipPath id="clip-path-49"><path d="M1722.49,471.28l2.7-171.25s-159.26-19.74-163.27-20.26-14.5-2-19.56-1.63l1.52,170.76C1550,446.55,1722.49,471.28,1722.49,471.28Z" fill="none" clip-rule="evenodd"/></clipPath><clipPath id="clip-path-50"><path d="M1721.79,486.81l2.21-177.2s-153.52-26.7-161.55-28.07c-3.39-.58-15.6-2.89-20.1-3.57l1.55,175.73Z" fill="#f1a43e" clip-rule="evenodd"/></clipPath><clipPath id="clip-path-51"><path d="M1721.27,498.67l1.46-179.8s-155.83-34.25-160.17-35.37-15.15-4.06-20.2-5.91l1.59,176.17Z" fill="none" clip-rule="evenodd"/></clipPath><clipPath id="clip-path-52"><path d="M1721.22,514.36V328.42s-151.85-40.75-157.91-42.4a137.71,137.71,0,0,1-20.95-8L1544,453.8C1550.55,451.85,1721.22,514.36,1721.22,514.36Z" fill="#f1a43e" clip-rule="evenodd"/></clipPath><clipPath id="clip-path-53"><path d="M1718,524.16V338.22S1565.78,290.41,1561.28,289s-13.39-4.9-18.93-10.44l-.48,183.5C1543.6,470.5,1718,524.16,1718,524.16Z" fill="none" clip-rule="evenodd"/></clipPath><clipPath id="clip-path-54"><path d="M1557.48,309.34v25.85l30.81,11.32V320.65ZM1609,328.43v25.85l30.81,11.32V339.75Zm51.56,19.09v25.85l30.81,11.32V358.84ZM1557.48,350v25.85l30.81,11.32V361.35ZM1609,369.13V395l30.81,11.32V380.44Zm51.56,19.09v25.85l30.81,11.32V399.54Zm-103.12,2.5v25.85l30.81,11.32V402ZM1609,409.82v25.85L1639.85,447V421.14Zm51.56,19.09v25.85l30.81,11.32V440.23Zm54.07-81.47,2.65,185.81L1641.63,506v-35.1a5.75,5.75,0,0,0-4.06-5.4l-26.77-9.83c-2.58-1.51-5.93.09-5.93,1.66v35.2l-40-14.8c-17-6.82-23.57-13.75-23.57-24V275.94c2.65,10.53,11.91,13.38,27.79,19.05Z" fill="none" clip-rule="evenodd"/></clipPath><clipPath id="clip-path-55"><path d="M2673.7,555.86l4.64-341.27-287.88,92.91c-24.65,8.3-41.35,12.27-41.35,36.88V703c4.64-22,20.9-34.51,48.76-50.43Z" fill="none" clip-rule="evenodd"/></clipPath><clipPath id="clip-path-56"><path d="M2657.47,555.31,2662,233.39,2389.82,316c-21.46,7.19-33.71,14.71-38.52,20.28l3,355.18C2366.61,685.62,2657.47,555.31,2657.47,555.31Z" fill="#f1a43e" clip-rule="evenodd"/></clipPath><clipPath id="clip-path-57"><path d="M2668.67,564.73l4.51-321.88s-261.84,71.24-283.71,77.56-33.39,14.4-38.16,19.93l3,355.2C2366.47,689.8,2668.67,564.73,2668.67,564.73Z" fill="#f1a43e" clip-rule="evenodd"/></clipPath><clipPath id="clip-path-58"><path d="M2694.11,588.19l4.8-321.79s-285.83,55.4-307,60.44-35.51,9.7-40.58,15.13l3.2,355.26C2367.43,691.73,2694.11,588.19,2694.11,588.19Z" fill="none" clip-rule="evenodd"/></clipPath><clipPath id="clip-path-59"><path d="M2682,575l4.69-321.88s-274.62,64.07-295.75,70.5-34.69,12.81-39.64,18.34l3.12,355.2C2367.05,691.4,2682,575,2682,575Z" fill="#fff" clip-rule="evenodd"/></clipPath><clipPath id="clip-path-60"><path d="M2703,602.65l3.89-323.1S2414,325.93,2391,331s-34.77,6.33-39.67,11.8L2354.38,698C2366.87,692.4,2703,602.65,2703,602.65Z" fill="#f1a43e" clip-rule="evenodd"/></clipPath><clipPath id="clip-path-61"><path d="M2708.64,604.88,2713.09,292s-311.6,39.43-323.72,41.28-32.08,4.9-38.07,9.83l3,345.19C2366.25,682.63,2708.64,604.88,2708.64,604.88Z" fill="#f1a43e" clip-rule="evenodd"/></clipPath><clipPath id="clip-path-62"><path d="M2713.76,632.84l3.9-326.15s-320.15,27.22-330.18,28.14-30.79,3.64-36.18,8.29l2.82,345.19C2365.5,682.62,2713.76,632.84,2713.76,632.84Z" fill="#fff" clip-rule="evenodd"/></clipPath><clipPath id="clip-path-63"><path d="M2715.64,646l5.64-326.24s-325.09,16.65-333.06,16.65-31.94,3.4-36.92,6.72l2.87,345.19Z" fill="#fff" clip-rule="evenodd"/></clipPath><clipPath id="clip-path-64"><path d="M2719.47,671.39l3.68-336.61S2390.61,339,2389,339c-8.14-.22-30.87.77-37.69,4.13l2.93,345.27Z" fill="#f1a43e" clip-rule="evenodd"/></clipPath><clipPath id="clip-path-65"><path d="M2716.24,693.9l4.89-342.41s-328-10-331.95-10.15c-8.18-.38-31.14-.69-37.88,1.8l2.95,345.33Z" fill="#f1a43e" clip-rule="evenodd"/></clipPath><clipPath id="clip-path-66"><path d="M2715.76,714.58,2722.85,370S2384,343.13,2382.36,343c-8.35-.51-25.61-2.36-31.06.13l3,345.37Z" fill="#fff" clip-rule="evenodd"/></clipPath><clipPath id="clip-path-67"><path d="M2715.66,733.83l5.47-346.4s-322.15-39.94-330.26-41-29.34-4.13-39.57-3.29l3.08,345.42C2366.83,683.81,2715.66,733.83,2715.66,733.83Z" fill="#fff" clip-rule="evenodd"/></clipPath><clipPath id="clip-path-68"><path d="M2714.25,765.24l4.47-358.43S2408.19,352.79,2392,350c-6.85-1.16-31.56-5.84-40.65-7.23l3.14,355.46Z" fill="#f1a43e" clip-rule="evenodd"/></clipPath><clipPath id="clip-path-69"><path d="M2713.2,789.22l3-363.7s-315.22-69.29-324-71.55-30.65-8.22-40.86-12l3.21,356.34Z" fill="#f1a43e" clip-rule="evenodd"/></clipPath><clipPath id="clip-path-70"><path d="M2713.09,821V444.85s-307.16-82.43-319.42-85.77a278.56,278.56,0,0,1-42.37-16.26l3.29,355.65C2367.87,694.52,2713.09,821,2713.09,821Z" fill="#fff" clip-rule="evenodd"/></clipPath><clipPath id="clip-path-71"><path d="M2706.63,840.78V464.67s-308-96.71-317.06-99.48-27.09-9.91-38.3-21.13l-1,371.17C2353.82,732.25,2706.63,840.78,2706.63,840.78Z" fill="#fff" clip-rule="evenodd"/></clipPath><clipPath id="clip-path-72"><path d="M2381.89,406.25v52.28l62.32,22.89V429.14Zm104.29,38.62v52.28L2548.5,520V467.76Zm104.29,38.62v52.28l62.32,22.89V506.38Zm-208.58,5.07v52.28l62.32,22.89V511.45Zm104.29,38.62v52.28l62.32,22.89V550.07Zm104.29,38.62v52.28L2652.79,641V588.7Zm-208.58,5.07v52.28L2444.21,646V593.76Zm104.29,38.62v52.28l62.32,22.89V632.39Zm104.29,38.62V700.4l62.32,22.89V671Zm109.36-164.79,5.35,375.84L2552.1,804V733c0-3.22-1.6-8.44-8.21-10.93l-54.14-19.88c-5.22-3-12,.19-12,3.36v71.21l-81-29.94c-34.29-13.8-47.67-27.8-47.67-48.62V338.7c5.35,21.29,24.1,27.06,56.22,38.54Z" fill="none" clip-rule="evenodd"/></clipPath></defs><title>Inverted B&amp;amp;W preview</title><rect x="2.51" width="1100.27" height="744.39"/><g id="Flatlas"><path d="M666.89,438.43a24.66,24.66,0,0,1-16.71-6.94,23.48,23.48,0,0,1-7.59-17.07H651c0,7.37,6.8,15.62,15.9,15.62,7.74,0,15.83-5.74,16-15.35V401.5c0-9.59-.81-14.56-3-18.33-2.29-4-6.53-7.11-14.62-10.84C653.73,367,649.63,363.18,647,359c-3.45-5.46-4.18-12-4.28-21.34v0l.15-14.74a24.32,24.32,0,0,1,24.3-24c13,0,23.42,10.52,23.64,23.95l-8.4.14c-.15-8.94-6.7-15.68-15.24-15.68A16,16,0,0,0,651.28,323l-.15,14.63c.16,15.89,1.6,19.66,17.63,27,9.82,4.52,15.14,8.65,18.38,14.27,3.43,5.94,4.12,13,4.12,22.53v13.27a23.41,23.41,0,0,1-7.77,17.32A25.15,25.15,0,0,1,666.89,438.43Z" fill="#fff"/><path d="M561.3,435.71c0-4.25-.24-104.27-.07-115.18a24.3,24.3,0,0,1,48.6,0V435.7h-8.4V320.64a15.9,15.9,0,0,0-31.8,0c-.17,10.83.07,114,.07,115Z" fill="#fff"/><rect x="565.64" y="365.06" width="39.98" height="8.4" fill="#fff"/><rect x="498.32" y="427.97" width="29.4" height="8.4" fill="#fff"/><rect x="498.24" y="301.64" width="8.4" height="134.06" fill="#fff"/><rect x="416.04" y="301.55" width="44.32" height="8.4" fill="#fff"/><rect x="436.2" y="301.64" width="8.4" height="134.06" fill="#fff"/><path d="M335.51,435.71c0-4.25-.24-104.27-.07-115.18a24.3,24.3,0,0,1,48.6,0V435.7h-8.4V320.64a15.9,15.9,0,0,0-31.8,0c-.17,10.83.07,114,.07,115Z" fill="#fff"/><rect x="342.8" y="365.06" width="34.54" height="8.4" fill="#fff"/><rect x="269.89" y="427.97" width="29.4" height="8.4" fill="#fff"/><rect x="269.8" y="301.64" width="8.4" height="134.06" fill="#fff"/><rect x="135.83" y="364.4" width="134.21" height="8.4" transform="translate(-165.89 571.11) rotate(-89.94)" fill="#fff"/><rect x="198.8" y="301.48" width="40.88" height="8.4" transform="translate(-1.38 1) rotate(-0.26)" fill="#fff"/><rect x="203.19" y="365.06" width="20.46" height="8.4" fill="#fff"/></g><g id="Book"><path d="M891.6,379.24l1.83-158.46L779.82,263.92c-9.73,3.86-16.32,5.7-16.32,17.12V447.57c1.83-10.23,8.25-16,19.24-23.41Z" fill="#fff" fill-rule="evenodd"/><g clip-path="url(#clip-path)"><rect width="1102.77" height="744.39" fill="#fff"/><g clip-path="url(#clip-path-2)"><rect x="762.03" y="219.32" width="132.88" height="229.72" fill="#fff"/></g></g><path d="M885.2,379,887,229.52,779.57,267.88c-8.47,3.34-13.3,6.83-15.2,9.42l1.2,164.91C770.41,439.49,885.2,379,885.2,379Z" fill="#fff" fill-rule="evenodd"/><g clip-path="url(#clip-path-3)"><rect width="1102.77" height="744.39" fill="#fff"/><g clip-path="url(#clip-path-2)"><rect x="762.9" y="228.05" width="125.57" height="215.63" fill="#fff"/></g></g><path d="M889.62,383.36l1.78-149.45s-103.34,33.08-112,36-13.18,6.69-15.06,9.25l1.19,164.92C770.35,441.43,889.62,383.36,889.62,383.36Z" fill-rule="evenodd"/><g clip-path="url(#clip-path-5)"><rect width="1102.77" height="744.39"/><g clip-path="url(#clip-path-6)"><rect x="762.9" y="232.44" width="129.97" height="213.13"/></g></g><path d="M894.88,388.13l1.85-149.45S788.35,268.42,780,271.41s-13.69,5.95-15.65,8.52l1.23,164.92C770.58,442.18,894.88,388.13,894.88,388.13Z" fill="#fff" fill-rule="evenodd"/><g clip-path="url(#clip-path-7)"><rect width="1102.77" height="744.39" fill="#fff"/><g clip-path="url(#clip-path-2)"><rect x="762.9" y="237.2" width="135.31" height="209.12" fill="#fff"/></g></g><path d="M899.66,394.26l1.89-149.41s-112.81,25.72-121.17,28.06-14,4.5-16,7l1.26,165C770.73,442.33,899.66,394.26,899.66,394.26Z" fill-rule="evenodd"/><g clip-path="url(#clip-path-9)"><rect width="1102.77" height="744.39"/><g clip-path="url(#clip-path-6)"><rect x="762.9" y="243.37" width="140.13" height="202.98"/></g></g><path d="M903.16,401,905,251.54S789.1,272.48,780,274.82s-13.72,2.94-15.65,5.48l1.22,164.94C770.51,442.64,903.16,401,903.16,401Z" fill="#fff" fill-rule="evenodd"/><g clip-path="url(#clip-path-11)"><rect width="1102.77" height="744.39" fill="#fff"/><g clip-path="url(#clip-path-2)"><rect x="762.9" y="250.07" width="143.57" height="196.64" fill="#fff"/></g></g><path d="M905.4,402l1.76-145.27S784.17,275,779.39,275.9s-12.66,2.28-15,4.56l1.17,160.28C770.27,438.11,905.4,402,905.4,402Z" fill-rule="evenodd"/><g clip-path="url(#clip-path-13)"><rect width="1102.77" height="744.39"/><g clip-path="url(#clip-path-6)"><rect x="762.9" y="255.27" width="145.73" height="186.94"/></g></g><path d="M907.42,415,909,263.55S782.6,276.19,778.65,276.62s-12.15,1.69-14.28,3.85l1.11,160.27C770,438.1,907.42,415,907.42,415Z" fill="#fff" fill-rule="evenodd"/><g clip-path="url(#clip-path-15)"><rect width="1102.77" height="744.39" fill="#fff"/><g clip-path="url(#clip-path-2)"><rect x="762.9" y="262.08" width="147.53" height="180.13" fill="#fff"/></g></g><path d="M908.16,421.1l2.23-151.48s-128.3,7.73-131.45,7.73-12.6,1.58-14.57,3.12l1.13,160.27Z" fill-rule="evenodd"/><g clip-path="url(#clip-path-17)"><rect width="1102.77" height="744.39"/><g clip-path="url(#clip-path-6)"><rect x="762.9" y="268.15" width="148.96" height="174.06"/></g></g><path d="M909.67,432.89l1.45-156.29s-131.24,2-131.88,2c-3.21-.1-12.18.36-14.87,1.92l1.16,160.31Z" fill="#fff" fill-rule="evenodd"/><g clip-path="url(#clip-path-19)"><rect width="1102.77" height="744.39" fill="#fff"/><g clip-path="url(#clip-path-2)"><rect x="762.9" y="275.13" width="149.7" height="167.13" fill="#fff"/></g></g><path d="M908.39,443.34l1.93-159s-129.43-4.63-131-4.71c-3.23-.18-12.29-.32-15,.84l1.16,160.34Z" fill-rule="evenodd"/><g clip-path="url(#clip-path-21)"><rect width="1102.77" height="744.39"/><g clip-path="url(#clip-path-6)"><rect x="762.9" y="278.05" width="148.9" height="166.76"/></g></g><path d="M908.21,452.94,911,293s-133.72-12.49-134.38-12.54c-3.3-.23-10.11-1.1-12.26.06l1.19,160.36Z" fill="#fff" fill-rule="evenodd"/><g clip-path="url(#clip-path-23)"><rect width="1102.77" height="744.39" fill="#fff"/><g clip-path="url(#clip-path-2)"><rect x="762.9" y="278.42" width="149.58" height="175.98" fill="#fff"/></g></g><path d="M908.17,461.88,910.32,301S783.19,282.5,780,282s-11.58-1.92-15.62-1.53l1.22,160.38C770.5,438.65,908.17,461.88,908.17,461.88Z" fill-rule="evenodd"/><g clip-path="url(#clip-path-25)"><rect width="1102.77" height="744.39"/><g clip-path="url(#clip-path-6)"><rect x="762.9" y="278.95" width="148.9" height="184.4"/></g></g><path d="M907.61,476.46,909.38,310s-122.56-25.08-129-26.36c-2.7-.54-12.46-2.71-16-3.36l1.24,165Z" fill="#fff" fill-rule="evenodd"/><g clip-path="url(#clip-path-27)"><rect width="1102.77" height="744.39" fill="#fff"/><g clip-path="url(#clip-path-2)"><rect x="762.9" y="278.85" width="147.95" height="199.08" fill="#fff"/></g></g><path d="M907.2,487.59l1.17-168.87S784,286.55,780.49,285.5s-12.09-3.82-16.13-5.55l1.27,165.45Z" fill-rule="evenodd"/><g clip-path="url(#clip-path-29)"><rect width="1102.77" height="744.39"/><g clip-path="url(#clip-path-6)"><rect x="762.9" y="278.48" width="146.93" height="210.59"/></g></g><path d="M907.15,502.34V327.7s-121.23-38.27-126.06-39.82a100.5,100.5,0,0,1-16.72-7.55l1.3,165.13C770.91,443.63,907.15,502.34,907.15,502.34Z" fill="#fff" fill-rule="evenodd"/><g clip-path="url(#clip-path-31)"><rect width="1102.77" height="744.39" fill="#fff"/><g clip-path="url(#clip-path-2)"><rect x="762.9" y="278.86" width="145.73" height="224.95" fill="#fff"/></g></g><path d="M904.6,509.48V334.84S783.06,292,779.47,290.71s-10.69-4.6-15.11-9.81L764,453.24C765.36,461.14,904.6,509.48,904.6,509.48Z" fill-rule="evenodd"/><g clip-path="url(#clip-path-33)"><rect width="1102.77" height="744.39"/><g clip-path="url(#clip-path-6)"><rect x="762.51" y="279.43" width="143.57" height="231.51"/></g></g><path d="M776.44,309.78v24.28L801,344.68V320.4Zm41.16,17.93V352l24.6,10.63V338.34Zm41.16,17.93v24.27l24.6,10.63V356.27ZM776.44,348v24.27L801,382.9V358.62Zm41.16,17.93V390.2l24.6,10.63V376.56Zm41.16,17.93v24.28l24.6,10.63V394.49Zm-82.32,2.35v24.28L801,421.12V396.84Zm41.16,17.93v24.28l24.6,10.63V414.78Zm41.16,17.93v24.28L883.35,457V432.71Zm43.16-76.51L904,520.08l-60.42-25.62v-33a5.43,5.43,0,0,0-3.24-5.07L819,447.19c-2.06-1.42-4.73.09-4.73,1.56v33.06l-32-13.9c-13.53-6.41-18.82-12.91-18.82-22.58V278.41c2.11,9.89,9.51,12.57,22.19,17.89Z" fill="#fff" fill-rule="evenodd"/><g clip-path="url(#clip-path-35)"><rect width="1102.77" height="744.39" fill="#fff"/><g clip-path="url(#clip-path-2)"><rect x="762.03" y="276.94" width="143.47" height="244.6" fill="#fff"/></g></g></g><path d="M1693.72,383,1696,223.88,1561.4,264.73c-10.61,3.56-16.66,7.27-19,10l1.5,175.59C1549.93,447.45,1693.72,383,1693.72,383Z" fill="#f1a43e" fill-rule="evenodd"/><g clip-path="url(#clip-path-38)"><rect x="584.88" y="-20.5" width="1381.38" height="792.59" fill="#f1a43e"/></g><path d="M1705.85,392.76l2.32-159.13S1572.4,265.3,1562,268.48s-17.15,6.34-19.6,9.07l1.54,175.6C1550.15,450.31,1705.85,392.76,1705.85,392.76Z" fill="#f1a43e" fill-rule="evenodd"/><g clip-path="url(#clip-path-40)"><rect x="584.88" y="-20.5" width="1381.38" height="792.59" fill="#f1a43e"/></g><path d="M1716.22,406.43l1.92-159.73s-144.8,22.93-156.18,25.41-17.19,3.13-19.61,5.84l1.53,175.62C1550.06,450.8,1716.22,406.43,1716.22,406.43Z" fill="#f1a43e" fill-rule="evenodd"/><g clip-path="url(#clip-path-42)"><rect x="584.88" y="-20.5" width="1381.38" height="792.59" fill="#f1a43e"/></g><path d="M1721.55,421.36l1.93-161.24S1565.2,273.58,1560.24,274s-15.22,1.8-17.89,4.1l1.39,170.65C1549.38,446,1721.55,421.36,1721.55,421.36Z" fill="#f1a43e" fill-rule="evenodd"/><g clip-path="url(#clip-path-44)"><rect x="584.88" y="-20.5" width="1381.38" height="792.59" fill="#f1a43e"/></g><path d="M1724.37,440.42,1726.19,274s-164.4,2.11-165.2,2.09c-4-.11-15.26.38-18.63,2l1.45,170.69Z" fill="#f1a43e" fill-rule="evenodd"/><g clip-path="url(#clip-path-46)"><rect x="584.88" y="-20.5" width="1381.38" height="792.59" fill="#f1a43e"/></g><path d="M1722.54,461.77l3.5-170.33s-167.5-13.3-168.33-13.35c-4.13-.25-12.66-1.17-15.36.06l1.49,170.74Z" fill="#f1a43e" fill-rule="evenodd"/><g clip-path="url(#clip-path-48)"><rect x="584.88" y="-20.5" width="1381.38" height="792.59" fill="#f1a43e"/></g><path d="M1721.79,486.81l2.21-177.2s-153.52-26.7-161.55-28.07c-3.39-.58-15.6-2.89-20.1-3.57l1.55,175.73Z" fill="#f1a43e" fill-rule="evenodd"/><g clip-path="url(#clip-path-50)"><rect x="584.88" y="-20.5" width="1381.38" height="792.59" fill="#f1a43e"/></g><path d="M1721.22,514.36V328.42s-151.85-40.75-157.91-42.4a137.71,137.71,0,0,1-20.95-8L1544,453.8C1550.55,451.85,1721.22,514.36,1721.22,514.36Z" fill="#f1a43e" fill-rule="evenodd"/><g clip-path="url(#clip-path-52)"><rect x="584.88" y="-20.5" width="1381.38" height="792.59" fill="#f1a43e"/></g><path d="M2657.47,555.31,2662,233.39,2389.82,316c-21.46,7.19-33.71,14.71-38.52,20.28l3,355.18C2366.61,685.62,2657.47,555.31,2657.47,555.31Z" fill="#f1a43e" fill-rule="evenodd"/><g clip-path="url(#clip-path-56)"><rect x="414.54" y="-260.93" width="2794.21" height="1603.23" fill="#f1a43e"/></g><path d="M2668.67,564.73l4.51-321.88s-261.84,71.24-283.71,77.56-33.39,14.4-38.16,19.93l3,355.2C2366.47,689.8,2668.67,564.73,2668.67,564.73Z" fill="#f1a43e" fill-rule="evenodd"/><g clip-path="url(#clip-path-57)"><rect x="414.54" y="-260.93" width="2794.21" height="1603.23" fill="#f1a43e"/></g><path d="M2682,575l4.69-321.88s-274.62,64.07-295.75,70.5-34.69,12.81-39.64,18.34l3.12,355.2C2367.05,691.4,2682,575,2682,575Z" fill="#fff" fill-rule="evenodd"/><g clip-path="url(#clip-path-59)"><rect x="414.54" y="-260.93" width="2794.21" height="1603.23" fill="#fff"/></g><path d="M2703,602.65l3.89-323.1S2414,325.93,2391,331s-34.77,6.33-39.67,11.8L2354.38,698C2366.87,692.4,2703,602.65,2703,602.65Z" fill="#f1a43e" fill-rule="evenodd"/><g clip-path="url(#clip-path-60)"><rect x="414.54" y="-260.93" width="2794.21" height="1603.23" fill="#f1a43e"/></g><path d="M2708.64,604.88,2713.09,292s-311.6,39.43-323.72,41.28-32.08,4.9-38.07,9.83l3,345.19C2366.25,682.63,2708.64,604.88,2708.64,604.88Z" fill="#f1a43e" fill-rule="evenodd"/><g clip-path="url(#clip-path-61)"><rect x="414.54" y="-260.93" width="2794.21" height="1603.23" fill="#f1a43e"/></g><path d="M2713.76,632.84l3.9-326.15s-320.15,27.22-330.18,28.14-30.79,3.64-36.18,8.29l2.82,345.19C2365.5,682.62,2713.76,632.84,2713.76,632.84Z" fill="#fff" fill-rule="evenodd"/><g clip-path="url(#clip-path-62)"><rect x="414.54" y="-260.93" width="2794.21" height="1603.23" fill="#fff"/></g><path d="M2715.64,646l5.64-326.24s-325.09,16.65-333.06,16.65-31.94,3.4-36.92,6.72l2.87,345.19Z" fill="#fff" fill-rule="evenodd"/><g clip-path="url(#clip-path-63)"><rect x="414.54" y="-260.93" width="2794.21" height="1603.23" fill="#fff"/></g><path d="M2719.47,671.39l3.68-336.61S2390.61,339,2389,339c-8.14-.22-30.87.77-37.69,4.13l2.93,345.27Z" fill="#f1a43e" fill-rule="evenodd"/><g clip-path="url(#clip-path-64)"><rect x="414.54" y="-260.93" width="2794.21" height="1603.23" fill="#f1a43e"/></g><path d="M2716.24,693.9l4.89-342.41s-328-10-331.95-10.15c-8.18-.38-31.14-.69-37.88,1.8l2.95,345.33Z" fill="#f1a43e" fill-rule="evenodd"/><g clip-path="url(#clip-path-65)"><rect x="414.54" y="-260.93" width="2794.21" height="1603.23" fill="#f1a43e"/></g><path d="M2715.76,714.58,2722.85,370S2384,343.13,2382.36,343c-8.35-.51-25.61-2.36-31.06.13l3,345.37Z" fill="#fff" fill-rule="evenodd"/><g clip-path="url(#clip-path-66)"><rect x="414.54" y="-260.93" width="2794.21" height="1603.23" fill="#fff"/></g><path d="M2715.66,733.83l5.47-346.4s-322.15-39.94-330.26-41-29.34-4.13-39.57-3.29l3.08,345.42C2366.83,683.81,2715.66,733.83,2715.66,733.83Z" fill="#fff" fill-rule="evenodd"/><g clip-path="url(#clip-path-67)"><rect x="414.54" y="-260.93" width="2794.21" height="1603.23" fill="#fff"/></g><path d="M2714.25,765.24l4.47-358.43S2408.19,352.79,2392,350c-6.85-1.16-31.56-5.84-40.65-7.23l3.14,355.46Z" fill="#f1a43e" fill-rule="evenodd"/><g clip-path="url(#clip-path-68)"><rect x="414.54" y="-260.93" width="2794.21" height="1603.23" fill="#f1a43e"/></g><path d="M2713.2,789.22l3-363.7s-315.22-69.29-324-71.55-30.65-8.22-40.86-12l3.21,356.34Z" fill="#f1a43e" fill-rule="evenodd"/><g clip-path="url(#clip-path-69)"><rect x="414.54" y="-260.93" width="2794.21" height="1603.23" fill="#f1a43e"/></g><path d="M2713.09,821V444.85s-307.16-82.43-319.42-85.77a278.56,278.56,0,0,1-42.37-16.26l3.29,355.65C2367.87,694.52,2713.09,821,2713.09,821Z" fill="#fff" fill-rule="evenodd"/><g clip-path="url(#clip-path-70)"><rect x="414.54" y="-260.93" width="2794.21" height="1603.23" fill="#fff"/></g><path d="M2706.63,840.78V464.67s-308-96.71-317.06-99.48-27.09-9.91-38.3-21.13l-1,371.17C2353.82,732.25,2706.63,840.78,2706.63,840.78Z" fill="#fff" fill-rule="evenodd"/><g clip-path="url(#clip-path-71)"><rect x="414.54" y="-260.93" width="2794.21" height="1603.23" fill="#fff"/></g></svg>