<svg id="Layer_1" data-name="Layer 1" xmlns="http://www.w3.org/2000/svg" xmlns:xlink="http://www.w3.org/1999/xlink" width="1125.3" height="759.6" viewBox="0 0 1125.3 759.6"><defs><clipPath id="clip-path"><path d="M909.82,387l1.87-161.69-115.94,44c-9.93,3.93-16.65,5.81-16.65,17.47V456.71c1.87-10.44,8.42-16.35,19.64-23.89Z" fill="none" clip-rule="evenodd"/></clipPath><clipPath id="clip-path-2"><rect width="1125.3" height="759.6" fill="none"/></clipPath><clipPath id="clip-path-3"><path d="M903.28,386.73l1.83-152.53L795.5,273.35c-8.64,3.41-13.57,7-15.51,9.61l1.22,168.28C786.15,448.47,903.28,386.73,903.28,386.73Z" fill="#f1a43e" clip-rule="evenodd"/></clipPath><clipPath id="clip-path-4"><rect width="1125.3" height="759.6" fill="#f1a43e"/></clipPath><clipPath id="clip-path-5"><path d="M907.8,391.2l1.82-152.51s-105.45,33.75-114.26,36.75-13.45,6.82-15.37,9.44l1.21,168.29C786.09,450.45,907.8,391.2,907.8,391.2Z" fill="none" clip-rule="evenodd"/></clipPath><clipPath id="clip-path-7"><path d="M913.16,396.06l1.89-152.51S804.46,273.9,795.95,277s-14,6.07-16,8.69l1.26,168.29C786.33,451.21,913.16,396.06,913.16,396.06Z" fill="#f1a43e" clip-rule="evenodd"/></clipPath><clipPath id="clip-path-9"><path d="M918,402.31,920,249.85s-115.11,26.25-123.64,28.63S782,283.08,780,285.65L781.27,454C786.48,451.36,918,402.31,918,402.31Z" fill="none" clip-rule="evenodd"/></clipPath><clipPath id="clip-path-11"><path d="M921.62,409.16l1.57-153.08s-118,22-127.23,24.36-14,3-16,5.59l1.24,168.31C786.25,451.68,921.62,409.16,921.62,409.16Z" fill="#f1a43e" clip-rule="evenodd"/></clipPath><clipPath id="clip-path-13"><path d="M923.89,410.22,925.68,262s-125.49,18.68-130.37,19.56-12.92,2.32-15.33,4.66l1.19,163.55C786,447.06,923.89,410.22,923.89,410.22Z" fill="none" clip-rule="evenodd"/></clipPath><clipPath id="clip-path-15"><path d="M926,423.46l1.57-154.53s-128.93,12.9-133,13.33S782.15,284,780,286.2l1.13,163.55C785.7,447.05,926,423.46,926,423.46Z" fill="#f1a43e" clip-rule="evenodd"/></clipPath><clipPath id="clip-path-17"><path d="M926.71,429.7,929,275.13S798.06,283,794.85,283,782,284.63,780,286.2l1.16,163.55Z" fill="none" clip-rule="evenodd"/></clipPath><clipPath id="clip-path-19"><path d="M928.25,441.73l1.48-159.48s-133.92,2-134.57,2c-3.28-.1-12.43.37-15.18,2l1.18,163.59Z" fill="#f1a43e" clip-rule="evenodd"/></clipPath><clipPath id="clip-path-21"><path d="M927,452.39l2-162.23s-132.07-4.72-133.68-4.81c-3.29-.18-12.54-.33-15.26.85l1.19,163.61Z" fill="none" clip-rule="evenodd"/></clipPath><clipPath id="clip-path-23"><path d="M926.76,462.19l2.85-163.24s-136.45-12.75-137.12-12.8c-3.36-.24-10.32-1.12-12.51.06l1.21,163.64Z" fill="#f1a43e" clip-rule="evenodd"/></clipPath><clipPath id="clip-path-25"><path d="M926.72,471.31l2.2-164.12s-129.74-18.92-133-19.41-11.82-2-15.94-1.56l1.24,163.66C786.24,447.61,926.72,471.31,926.72,471.31Z" fill="none" clip-rule="evenodd"/></clipPath><clipPath id="clip-path-27"><path d="M926.15,486.19,928,316.37s-125.06-25.59-131.6-26.9c-2.76-.55-12.71-2.77-16.37-3.43l1.26,168.42Z" fill="#f1a43e" clip-rule="evenodd"/></clipPath><clipPath id="clip-path-29"><path d="M925.73,497.55l1.19-172.32S800,292.41,796.44,291.33s-12.34-3.89-16.46-5.67l1.29,168.83Z" fill="none" clip-rule="evenodd"/></clipPath><clipPath id="clip-path-31"><path d="M925.68,512.6V334.4S802,295.34,797,293.76a102.55,102.55,0,0,1-17.07-7.7l1.32,168.5C786.66,452.69,925.68,512.6,925.68,512.6Z" fill="#f1a43e" clip-rule="evenodd"/></clipPath><clipPath id="clip-path-33"><path d="M923.08,522V343.78S799.06,298,795.4,296.65s-10.91-4.69-15.42-10l-.39,175.86C781,470.56,923.08,522,923.08,522Z" fill="none" clip-rule="evenodd"/></clipPath><clipPath id="clip-path-35"><path d="M792.3,316.1v24.77l25.1,10.85V326.95Zm42,18.3v24.77L859.4,370V345.25Zm42,18.3v24.77l25.1,10.85V363.55Zm-84,2.4v24.77l25.1,10.85V365.95Zm42,18.3v24.77L859.4,409V384.25Zm42,18.3v24.77l25.1,10.85V402.55Zm-84,2.4v24.77l25.1,10.85V404.95Zm42,18.3v24.77L859.4,448V423.25Zm42,18.3v24.77l25.1,10.85V441.55Zm44-78.08L922.5,530.7l-61.65-26.14V470.92a5.54,5.54,0,0,0-3.31-5.18l-21.81-9.42c-2.1-1.44-4.83.09-4.83,1.59v33.74L798.3,477.47c-13.81-6.54-19.2-13.17-19.2-23V284.1c2.16,10.09,9.7,12.82,22.64,18.26Z" fill="none" clip-rule="evenodd"/></clipPath><clipPath id="clip-path-37"><path d="M235.71,1372l4.64-341.27-287.88,92.91c-24.65,8.3-41.35,12.27-41.35,36.88v358.64c4.64-22,20.9-34.51,48.76-50.43Z" fill="none" clip-rule="evenodd"/></clipPath><clipPath id="clip-path-38"><path d="M219.48,1371.42,224,1049.5l-272.2,82.62c-21.46,7.19-33.71,14.71-38.52,20.28l3,355.18C-71.38,1501.73,219.48,1371.42,219.48,1371.42Z" fill="#f1a43e" clip-rule="evenodd"/></clipPath><clipPath id="clip-path-39"><path d="M230.68,1380.85,235.19,1059s-261.84,71.24-283.71,77.56-33.39,14.4-38.16,19.93l3,355.2C-71.52,1505.92,230.68,1380.85,230.68,1380.85Z" fill="#f1a43e" clip-rule="evenodd"/></clipPath><clipPath id="clip-path-40"><path d="M256.11,1404.3l4.8-321.79s-285.83,55.4-307,60.44-35.51,9.7-40.58,15.13l3.2,355.26C-70.56,1507.84,256.11,1404.3,256.11,1404.3Z" fill="none" clip-rule="evenodd"/></clipPath><clipPath id="clip-path-41"><path d="M244,1391.1l4.69-321.88S-25.92,1133.29-47,1139.72s-34.69,12.81-39.64,18.34l3.12,355.2C-70.94,1507.52,244,1391.1,244,1391.1Z" fill="#fff" clip-rule="evenodd"/></clipPath><clipPath id="clip-path-42"><path d="M265,1418.77l3.89-323.1S-24,1142-47,1147.07s-34.77,6.33-39.67,11.8l3.09,355.24C-71.12,1508.51,265,1418.77,265,1418.77Z" fill="#f1a43e" clip-rule="evenodd"/></clipPath><clipPath id="clip-path-43"><path d="M270.65,1421l4.45-312.87s-311.6,39.43-323.72,41.28-32.08,4.9-38.07,9.83l3,345.19C-71.74,1498.75,270.65,1421,270.65,1421Z" fill="#f1a43e" clip-rule="evenodd"/></clipPath><clipPath id="clip-path-44"><path d="M275.77,1449l3.9-326.15S-40.48,1150-50.51,1151s-30.79,3.64-36.18,8.29l2.82,345.19C-72.49,1498.74,275.77,1449,275.77,1449Z" fill="#fff" clip-rule="evenodd"/></clipPath><clipPath id="clip-path-45"><path d="M277.65,1462.11l5.64-326.24s-325.09,16.65-333.06,16.65-31.94,3.4-36.92,6.72l2.87,345.19Z" fill="#fff" clip-rule="evenodd"/></clipPath><clipPath id="clip-path-46"><path d="M281.48,1487.51l3.68-336.61s-332.53,4.26-334.16,4.22c-8.14-.22-30.87.77-37.69,4.13l2.93,345.27Z" fill="#f1a43e" clip-rule="evenodd"/></clipPath><clipPath id="clip-path-47"><path d="M278.25,1510l4.89-342.41s-328-10-331.95-10.15c-8.18-.38-31.14-.69-37.88,1.8l2.95,345.33Z" fill="#f1a43e" clip-rule="evenodd"/></clipPath><clipPath id="clip-path-48"><path d="M277.77,1530.69l7.09-344.54s-338.82-26.91-340.49-27c-8.35-.51-25.61-2.36-31.06.13l3,345.37Z" fill="#fff" clip-rule="evenodd"/></clipPath><clipPath id="clip-path-49"><path d="M277.67,1549.94l5.47-346.4s-322.15-39.94-330.26-41-29.34-4.13-39.57-3.29l3.08,345.42C-71.16,1499.92,277.67,1549.94,277.67,1549.94Z" fill="#fff" clip-rule="evenodd"/></clipPath><clipPath id="clip-path-50"><path d="M276.26,1581.35l4.47-358.43S-29.8,1168.9-46,1166.14c-6.85-1.16-31.56-5.84-40.65-7.23l3.14,355.46Z" fill="#f1a43e" clip-rule="evenodd"/></clipPath><clipPath id="clip-path-51"><path d="M275.21,1605.33l3-363.7s-315.22-69.29-324-71.55-30.65-8.22-40.86-12l3.21,356.34Z" fill="#f1a43e" clip-rule="evenodd"/></clipPath><clipPath id="clip-path-52"><path d="M275.1,1637.08V1261s-307.16-82.43-319.42-85.77a278.56,278.56,0,0,1-42.37-16.26l3.29,355.65C-70.12,1510.63,275.1,1637.08,275.1,1637.08Z" fill="#fff" clip-rule="evenodd"/></clipPath><clipPath id="clip-path-53"><path d="M268.64,1656.9V1280.78s-308-96.71-317.06-99.48-27.09-9.91-38.3-21.13l-1,371.17C-84.17,1548.36,268.64,1656.9,268.64,1656.9Z" fill="#fff" clip-rule="evenodd"/></clipPath><clipPath id="clip-path-54"><path d="M-56.1,1222.36v52.28l62.32,22.89v-52.28ZM48.19,1261v52.28l62.32,22.89v-52.28Zm104.29,38.62v52.28l62.32,22.89V1322.5Zm-208.58,5.07V1357l62.32,22.89v-52.28ZM48.19,1343.3v52.28l62.32,22.89v-52.28Zm104.29,38.62v52.28l62.32,22.89v-52.28ZM-56.1,1387v52.28l62.32,22.89v-52.28Zm104.29,38.62v52.28l62.32,22.89V1448.5Zm104.29,38.62v52.28l62.32,22.89v-52.28Zm109.36-164.79,5.35,375.84-153.08-55.18v-71c0-3.22-1.6-8.44-8.21-10.93l-54.14-19.88c-5.22-3-12,.19-12,3.36v71.21l-81-29.94c-34.29-13.8-47.67-27.8-47.67-48.62V1154.81c5.35,21.29,24.1,27.06,56.22,38.54Z" fill="none" clip-rule="evenodd"/></clipPath></defs><title>Orange preview</title><g clip-path="url(#clip-path)"><g clip-path="url(#clip-path-2)"><rect x="777.6" y="223.8" width="135.59" height="234.41" fill="#444"/></g></g><path d="M903.28,386.73l1.83-152.53L795.5,273.35c-8.64,3.41-13.57,7-15.51,9.61l1.22,168.28C786.15,448.47,903.28,386.73,903.28,386.73Z" fill="#f1a43e" fill-rule="evenodd"/><g clip-path="url(#clip-path-3)"><rect width="1125.3" height="759.6" fill="#f1a43e"/><g clip-path="url(#clip-path-4)"><rect x="778.48" y="232.71" width="128.14" height="220.04" fill="#f1a43e"/></g></g><g clip-path="url(#clip-path-5)"><g clip-path="url(#clip-path-2)"><rect x="778.48" y="237.19" width="132.63" height="217.48" fill="#fff"/></g></g><path d="M913.16,396.06l1.89-152.51S804.46,273.9,795.95,277s-14,6.07-16,8.69l1.26,168.29C786.33,451.21,913.16,396.06,913.16,396.06Z" fill="#f1a43e" fill-rule="evenodd"/><g clip-path="url(#clip-path-7)"><rect width="1125.3" height="759.6" fill="#f1a43e"/><g clip-path="url(#clip-path-4)"><rect x="778.48" y="242.05" width="138.07" height="213.39" fill="#f1a43e"/></g></g><g clip-path="url(#clip-path-9)"><g clip-path="url(#clip-path-2)"><rect x="778.48" y="248.35" width="142.99" height="207.12" fill="#fff"/></g></g><path d="M921.62,409.16l1.57-153.08s-118,22-127.23,24.36-14,3-16,5.59l1.24,168.31C786.25,451.68,921.62,409.16,921.62,409.16Z" fill="#f1a43e" fill-rule="evenodd"/><g clip-path="url(#clip-path-11)"><rect width="1125.3" height="759.6" fill="#f1a43e"/><g clip-path="url(#clip-path-4)"><rect x="778.48" y="255.18" width="146.5" height="200.66" fill="#f1a43e"/></g></g><g clip-path="url(#clip-path-13)"><g clip-path="url(#clip-path-2)"><rect x="778.48" y="260.48" width="148.7" height="190.76" fill="#fff"/></g></g><path d="M926,423.46l1.57-154.53s-128.93,12.9-133,13.33S782.15,284,780,286.2l1.13,163.55C785.7,447.05,926,423.46,926,423.46Z" fill="#f1a43e" fill-rule="evenodd"/><g clip-path="url(#clip-path-15)"><rect width="1125.3" height="759.6" fill="#f1a43e"/><g clip-path="url(#clip-path-4)"><rect x="778.48" y="267.44" width="150.54" height="183.81" fill="#f1a43e"/></g></g><g clip-path="url(#clip-path-17)"><g clip-path="url(#clip-path-2)"><rect x="778.48" y="273.63" width="152" height="177.62" fill="#fff"/></g></g><path d="M928.25,441.73l1.48-159.48s-133.92,2-134.57,2c-3.28-.1-12.43.37-15.18,2l1.18,163.59Z" fill="#f1a43e" fill-rule="evenodd"/><g clip-path="url(#clip-path-19)"><rect width="1125.3" height="759.6" fill="#f1a43e"/><g clip-path="url(#clip-path-4)"><rect x="778.48" y="280.75" width="152.75" height="170.54" fill="#f1a43e"/></g></g><g clip-path="url(#clip-path-21)"><g clip-path="url(#clip-path-2)"><rect x="778.48" y="283.73" width="151.94" height="170.16" fill="#fff"/></g></g><path d="M926.76,462.19l2.85-163.24s-136.45-12.75-137.12-12.8c-3.36-.24-10.32-1.12-12.51.06l1.21,163.64Z" fill="#f1a43e" fill-rule="evenodd"/><g clip-path="url(#clip-path-23)"><rect width="1125.3" height="759.6" fill="#f1a43e"/><g clip-path="url(#clip-path-4)"><rect x="778.48" y="284.11" width="152.63" height="179.58" fill="#f1a43e"/></g></g><g clip-path="url(#clip-path-25)"><g clip-path="url(#clip-path-2)"><rect x="778.48" y="284.65" width="151.94" height="188.16" fill="#fff"/></g></g><path d="M926.15,486.19,928,316.37s-125.06-25.59-131.6-26.9c-2.76-.55-12.71-2.77-16.37-3.43l1.26,168.42Z" fill="#f1a43e" fill-rule="evenodd"/><g clip-path="url(#clip-path-27)"><rect width="1125.3" height="759.6" fill="#f1a43e"/><g clip-path="url(#clip-path-4)"><rect x="778.48" y="284.54" width="150.97" height="203.15" fill="#f1a43e"/></g></g><g clip-path="url(#clip-path-29)"><g clip-path="url(#clip-path-2)"><rect x="778.48" y="284.17" width="149.94" height="214.89" fill="#fff"/></g></g><path d="M925.68,512.6V334.4S802,295.34,797,293.76a102.55,102.55,0,0,1-17.07-7.7l1.32,168.5C786.66,452.69,925.68,512.6,925.68,512.6Z" fill="#f1a43e" fill-rule="evenodd"/><g clip-path="url(#clip-path-31)"><rect width="1125.3" height="759.6" fill="#f1a43e"/><g clip-path="url(#clip-path-4)"><rect x="778.48" y="284.56" width="148.7" height="229.54" fill="#f1a43e"/></g></g><g clip-path="url(#clip-path-33)"><g clip-path="url(#clip-path-2)"><rect x="778.08" y="285.14" width="146.5" height="236.24" fill="#fff"/></g></g><g clip-path="url(#clip-path-35)"><g clip-path="url(#clip-path-2)"><rect x="777.6" y="282.6" width="146.4" height="249.6" fill="#444"/></g></g><g id="Flatlas"><path d="M680.51,447.3a25.08,25.08,0,0,1-17-7.06,23.88,23.88,0,0,1-7.72-17.36h8.4c0,7.56,7,16,16.31,16,7.94,0,16.24-5.89,16.39-15.75V409.7c0-9.8-.83-14.88-3.06-18.75-2.35-4.07-6.68-7.29-15-11.1-11.73-5.4-15.91-9.32-18.57-13.52-3.51-5.56-4.26-12.18-4.35-21.73v-.08l.15-15a24.73,24.73,0,0,1,24.71-24.38c13.26,0,23.82,10.7,24,24.35l-8.4.14c-.15-9.17-6.87-16.09-15.64-16.09a16.4,16.4,0,0,0-16.31,16.09l-.15,14.93c.1,9.35.9,13.88,3.05,17.29s6.44,6.45,15,10.38c10,4.6,15.42,8.81,18.72,14.53,3.49,6,4.19,13.26,4.19,23v13.54a23.81,23.81,0,0,1-7.9,17.61A25.57,25.57,0,0,1,680.51,447.3Z" fill="#444"/><path d="M572.85,444.61c0-4.34-.25-106.4-.07-117.53a24.71,24.71,0,0,1,49.42,0V444.6h-8.4V327.18a16.31,16.31,0,0,0-32.62,0c-.18,11,.07,116.31.07,117.37Z" fill="#444"/><rect x="577.2" y="372.6" width="40.8" height="8.4" fill="#444"/><rect x="508.5" y="436.8" width="30" height="8.4" fill="#444"/><rect x="508.5" y="307.8" width="8.4" height="136.8" fill="#444"/><rect x="424.54" y="307.8" width="45.23" height="8.4" fill="#444"/><rect x="445.2" y="307.8" width="8.4" height="136.8" fill="#444"/><path d="M342.45,444.61c0-4.34-.25-106.4-.07-117.53a24.71,24.71,0,0,1,49.42,0V444.6h-8.4V327.18a16.31,16.31,0,0,0-32.62,0c-.18,11,.07,116.31.07,117.37Z" fill="#444"/><rect x="349.8" y="372.6" width="35.25" height="8.4" fill="#444"/><rect x="275.4" y="436.8" width="30" height="8.4" fill="#444"/><rect x="275.4" y="307.8" width="8.4" height="136.8" fill="#444"/><rect x="138.6" y="371.93" width="136.95" height="8.4" transform="translate(-169.27 582.79) rotate(-89.94)" fill="#444"/><rect x="202.95" y="307.72" width="41.54" height="8.4" transform="translate(-1.41 1.02) rotate(-0.26)" fill="#444"/><rect x="207.34" y="372.6" width="20.88" height="8.4" fill="#444"/></g><path d="M219.48,1371.42,224,1049.5l-272.2,82.62c-21.46,7.19-33.71,14.71-38.52,20.28l3,355.18C-71.38,1501.73,219.48,1371.42,219.48,1371.42Z" fill="#f1a43e" fill-rule="evenodd"/><g clip-path="url(#clip-path-38)"><rect x="-2023.45" y="555.18" width="2794.21" height="1603.23" fill="#f1a43e"/></g><path d="M230.68,1380.85,235.19,1059s-261.84,71.24-283.71,77.56-33.39,14.4-38.16,19.93l3,355.2C-71.52,1505.92,230.68,1380.85,230.68,1380.85Z" fill="#f1a43e" fill-rule="evenodd"/><g clip-path="url(#clip-path-39)"><rect x="-2023.45" y="555.18" width="2794.21" height="1603.23" fill="#f1a43e"/></g><path d="M244,1391.1l4.69-321.88S-25.92,1133.29-47,1139.72s-34.69,12.81-39.64,18.34l3.12,355.2C-70.94,1507.52,244,1391.1,244,1391.1Z" fill="#fff" fill-rule="evenodd"/><g clip-path="url(#clip-path-41)"><rect x="-2023.45" y="555.18" width="2794.21" height="1603.23" fill="#fff"/></g><path d="M265,1418.77l3.89-323.1S-24,1142-47,1147.07s-34.77,6.33-39.67,11.8l3.09,355.24C-71.12,1508.51,265,1418.77,265,1418.77Z" fill="#f1a43e" fill-rule="evenodd"/><g clip-path="url(#clip-path-42)"><rect x="-2023.45" y="555.18" width="2794.21" height="1603.23" fill="#f1a43e"/></g><path d="M270.65,1421l4.45-312.87s-311.6,39.43-323.72,41.28-32.08,4.9-38.07,9.83l3,345.19C-71.74,1498.75,270.65,1421,270.65,1421Z" fill="#f1a43e" fill-rule="evenodd"/><g clip-path="url(#clip-path-43)"><rect x="-2023.45" y="555.18" width="2794.21" height="1603.23" fill="#f1a43e"/></g><path d="M275.77,1449l3.9-326.15S-40.48,1150-50.51,1151s-30.79,3.64-36.18,8.29l2.82,345.19C-72.49,1498.74,275.77,1449,275.77,1449Z" fill="#fff" fill-rule="evenodd"/><g clip-path="url(#clip-path-44)"><rect x="-2023.45" y="555.18" width="2794.21" height="1603.23" fill="#fff"/></g><path d="M277.65,1462.11l5.64-326.24s-325.09,16.65-333.06,16.65-31.94,3.4-36.92,6.72l2.87,345.19Z" fill="#fff" fill-rule="evenodd"/><g clip-path="url(#clip-path-45)"><rect x="-2023.45" y="555.18" width="2794.21" height="1603.23" fill="#fff"/></g><path d="M281.48,1487.51l3.68-336.61s-332.53,4.26-334.16,4.22c-8.14-.22-30.87.77-37.69,4.13l2.93,345.27Z" fill="#f1a43e" fill-rule="evenodd"/><g clip-path="url(#clip-path-46)"><rect x="-2023.45" y="555.18" width="2794.21" height="1603.23" fill="#f1a43e"/></g><path d="M278.25,1510l4.89-342.41s-328-10-331.95-10.15c-8.18-.38-31.14-.69-37.88,1.8l2.95,345.33Z" fill="#f1a43e" fill-rule="evenodd"/><g clip-path="url(#clip-path-47)"><rect x="-2023.45" y="555.18" width="2794.21" height="1603.23" fill="#f1a43e"/></g><path d="M277.77,1530.69l7.09-344.54s-338.82-26.91-340.49-27c-8.35-.51-25.61-2.36-31.06.13l3,345.37Z" fill="#fff" fill-rule="evenodd"/><g clip-path="url(#clip-path-48)"><rect x="-2023.45" y="555.18" width="2794.21" height="1603.23" fill="#fff"/></g><path d="M277.67,1549.94l5.47-346.4s-322.15-39.94-330.26-41-29.34-4.13-39.57-3.29l3.08,345.42C-71.16,1499.92,277.67,1549.94,277.67,1549.94Z" fill="#fff" fill-rule="evenodd"/><g clip-path="url(#clip-path-49)"><rect x="-2023.45" y="555.18" width="2794.21" height="1603.23" fill="#fff"/></g><path d="M276.26,1581.35l4.47-358.43S-29.8,1168.9-46,1166.14c-6.85-1.16-31.56-5.84-40.65-7.23l3.14,355.46Z" fill="#f1a43e" fill-rule="evenodd"/><g clip-path="url(#clip-path-50)"><rect x="-2023.45" y="555.18" width="2794.21" height="1603.23" fill="#f1a43e"/></g><path d="M275.21,1605.33l3-363.7s-315.22-69.29-324-71.55-30.65-8.22-40.86-12l3.21,356.34Z" fill="#f1a43e" fill-rule="evenodd"/><g clip-path="url(#clip-path-51)"><rect x="-2023.45" y="555.18" width="2794.21" height="1603.23" fill="#f1a43e"/></g><path d="M275.1,1637.08V1261s-307.16-82.43-319.42-85.77a278.56,278.56,0,0,1-42.37-16.26l3.29,355.65C-70.12,1510.63,275.1,1637.08,275.1,1637.08Z" fill="#fff" fill-rule="evenodd"/><g clip-path="url(#clip-path-52)"><rect x="-2023.45" y="555.18" width="2794.21" height="1603.23" fill="#fff"/></g><path d="M268.64,1656.9V1280.78s-308-96.71-317.06-99.48-27.09-9.91-38.3-21.13l-1,371.17C-84.17,1548.36,268.64,1656.9,268.64,1656.9Z" fill="#fff" fill-rule="evenodd"/><g clip-path="url(#clip-path-53)"><rect x="-2023.45" y="555.18" width="2794.21" height="1603.23" fill="#fff"/></g></svg>