<svg id="Layer_1" data-name="Layer 1" xmlns="http://www.w3.org/2000/svg" xmlns:xlink="http://www.w3.org/1999/xlink" width="729.07" height="828.5" viewBox="0 0 729.07 828.5"><defs><clipPath id="clip-path"><path d="M425,338.22l2.3-168.71L285,215.43c-12.19,4.11-20.44,6.07-20.44,18.23V411c2.3-10.89,10.33-17.06,24.11-24.93Z" fill="none" clip-rule="evenodd"/></clipPath><clipPath id="clip-path-2"><rect x="-691.82" y="-65.58" width="1381.38" height="792.59" fill="none"/></clipPath><clipPath id="clip-path-3"><path d="M417,337.95l2.25-159.15L284.7,219.64c-10.61,3.56-16.66,7.27-19,10l1.5,175.59C273.22,402.37,417,337.95,417,337.95Z" fill="#f1a43e" clip-rule="evenodd"/></clipPath><clipPath id="clip-path-4"><rect x="-691.82" y="-65.58" width="1381.38" height="792.59" fill="#f1a43e"/></clipPath><clipPath id="clip-path-5"><path d="M422.55,342.6l2.23-159.13s-129.44,35.22-140.26,38.34-16.51,7.12-18.87,9.85l1.49,175.6C273.15,404.43,422.55,342.6,422.55,342.6Z" fill="none" clip-rule="evenodd"/></clipPath><clipPath id="clip-path-7"><path d="M429.14,347.68l2.32-159.13S295.7,220.22,285.25,223.4s-17.15,6.34-19.6,9.07l1.54,175.6C273.44,405.23,429.14,347.68,429.14,347.68Z" fill="#f1a43e" clip-rule="evenodd"/></clipPath><clipPath id="clip-path-9"><path d="M435.13,354.2l2.37-159.08S296.19,222.5,285.72,225s-17.55,4.79-20.06,7.48l1.58,175.63C273.63,405.39,435.13,354.2,435.13,354.2Z" fill="none" clip-rule="evenodd"/></clipPath><clipPath id="clip-path-11"><path d="M439.52,361.35l1.92-159.73S296.64,224.55,285.26,227s-17.19,3.13-19.61,5.84l1.53,175.62C273.35,405.72,439.52,361.35,439.52,361.35Z" fill="#f1a43e" clip-rule="evenodd"/></clipPath><clipPath id="clip-path-13"><path d="M442.31,362.45l2.2-154.67s-154,19.5-160,20.41-15.86,2.42-18.82,4.86l1.46,170.65C273,400.89,442.31,362.45,442.31,362.45Z" fill="none" clip-rule="evenodd"/></clipPath><clipPath id="clip-path-15"><path d="M444.84,376.27,446.77,215S288.5,228.49,283.54,229s-15.22,1.8-17.89,4.1L267,403.7C272.67,400.89,444.84,376.27,444.84,376.27Z" fill="#f1a43e" clip-rule="evenodd"/></clipPath><clipPath id="clip-path-17"><path d="M445.77,382.78l2.79-161.28s-160.72,8.23-164.66,8.23-15.79,1.68-18.25,3.32l1.42,170.65Z" fill="none" clip-rule="evenodd"/></clipPath><clipPath id="clip-path-19"><path d="M447.67,395.33l1.82-166.41S285.09,231,284.28,231c-4-.11-15.26.38-18.63,2l1.45,170.69Z" fill="#f1a43e" clip-rule="evenodd"/></clipPath><clipPath id="clip-path-21"><path d="M446.07,406.46l2.42-169.28s-162.13-4.93-164.11-5c-4-.19-15.4-.34-18.73.89l1.46,170.72Z" fill="none" clip-rule="evenodd"/></clipPath><clipPath id="clip-path-23"><path d="M445.83,416.68l3.5-170.33S281.83,233,281,233c-4.13-.25-12.66-1.17-15.36.06l1.49,170.74Z" fill="#f1a43e" clip-rule="evenodd"/></clipPath><clipPath id="clip-path-25"><path d="M445.78,426.2l2.7-171.25s-159.26-19.74-163.27-20.26-14.5-2-19.56-1.63l1.52,170.76C273.33,401.47,445.78,426.2,445.78,426.2Z" fill="none" clip-rule="evenodd"/></clipPath><clipPath id="clip-path-27"><path d="M445.08,441.73l2.21-177.2s-153.52-26.7-161.55-28.07c-3.39-.58-15.6-2.89-20.1-3.57l1.55,175.73Z" fill="#f1a43e" clip-rule="evenodd"/></clipPath><clipPath id="clip-path-29"><path d="M444.56,453.58,446,273.78s-155.83-34.25-160.17-35.37-15.15-4.06-20.2-5.91l1.59,176.17Z" fill="none" clip-rule="evenodd"/></clipPath><clipPath id="clip-path-31"><path d="M444.51,469.28V283.34s-151.85-40.75-157.91-42.4a137.71,137.71,0,0,1-20.95-8l1.62,175.82C273.85,406.77,444.51,469.28,444.51,469.28Z" fill="#f1a43e" clip-rule="evenodd"/></clipPath><clipPath id="clip-path-33"><path d="M441.32,479.07V293.13S289.07,245.32,284.57,244s-13.39-4.9-18.93-10.44L265.16,417C266.9,425.42,441.32,479.07,441.32,479.07Z" fill="none" clip-rule="evenodd"/></clipPath><clipPath id="clip-path-35"><path d="M280.77,264.25V290.1l30.81,11.32V275.57Zm51.56,19.09v25.85l30.81,11.32V294.66Zm51.56,19.09v25.85L414.7,339.6V313.76Zm-103.12,2.5v25.85l30.81,11.32V316.26ZM332.33,324v25.85l30.81,11.32V335.36Zm51.56,19.09V369L414.7,380.3V354.45Zm-103.12,2.5v25.85l30.81,11.32V357Zm51.56,19.09v25.85l30.81,11.32V376.05Zm51.56,19.09v25.85L414.7,421V395.15ZM438,302.36l2.65,185.81-75.68-27.28v-35.1a5.75,5.75,0,0,0-4.06-5.4l-26.77-9.83c-2.58-1.51-5.93.09-5.93,1.66v35.2l-40-14.8c-17-6.82-23.57-13.75-23.57-24V230.86c2.65,10.53,11.91,13.38,27.79,19.05Z" fill="none" clip-rule="evenodd"/></clipPath><clipPath id="clip-path-37"><path d="M1397,510.77l4.64-341.27-287.88,92.91c-24.65,8.3-41.35,12.27-41.35,36.88V657.93c4.64-22,20.9-34.51,48.76-50.43Z" fill="none" clip-rule="evenodd"/></clipPath><clipPath id="clip-path-38"><path d="M1380.76,510.23l4.55-321.92-272.2,82.62c-21.46,7.19-33.71,14.71-38.52,20.28l3,355.18C1089.9,640.53,1380.76,510.23,1380.76,510.23Z" fill="#f1a43e" clip-rule="evenodd"/></clipPath><clipPath id="clip-path-39"><path d="M1392,519.65l4.51-321.88S1134.64,269,1112.76,275.33s-33.39,14.4-38.16,19.93l3,355.2C1089.76,644.72,1392,519.65,1392,519.65Z" fill="#f1a43e" clip-rule="evenodd"/></clipPath><clipPath id="clip-path-40"><path d="M1417.4,543.11l4.8-321.79s-285.83,55.4-307,60.44-35.51,9.7-40.58,15.13l3.2,355.26C1090.72,646.64,1417.4,543.11,1417.4,543.11Z" fill="none" clip-rule="evenodd"/></clipPath><clipPath id="clip-path-41"><path d="M1405.3,529.91,1410,208s-274.62,64.07-295.75,70.5-34.69,12.81-39.64,18.34l3.12,355.2C1090.34,646.32,1405.3,529.91,1405.3,529.91Z" fill="#fff" clip-rule="evenodd"/></clipPath><clipPath id="clip-path-42"><path d="M1426.28,557.57l3.89-323.1s-292.9,46.37-315.91,51.41-34.77,6.33-39.67,11.8l3.09,355.24C1090.17,647.31,1426.28,557.57,1426.28,557.57Z" fill="#f1a43e" clip-rule="evenodd"/></clipPath><clipPath id="clip-path-43"><path d="M1431.94,559.8l4.45-312.87s-311.6,39.43-323.72,41.28-32.08,4.9-38.07,9.83l3,345.19C1089.54,637.55,1431.94,559.8,1431.94,559.8Z" fill="#f1a43e" clip-rule="evenodd"/></clipPath><clipPath id="clip-path-44"><path d="M1437.05,587.75l3.9-326.15s-320.15,27.22-330.18,28.14S1080,293.4,1074.59,298l2.82,345.19C1088.8,637.54,1437.05,587.75,1437.05,587.75Z" fill="#fff" clip-rule="evenodd"/></clipPath><clipPath id="clip-path-45"><path d="M1438.94,600.91l5.64-326.24s-325.09,16.65-333.06,16.65-31.94,3.4-36.92,6.72l2.87,345.19Z" fill="#fff" clip-rule="evenodd"/></clipPath><clipPath id="clip-path-46"><path d="M1442.77,626.31l3.68-336.61s-332.53,4.26-334.16,4.22c-8.14-.22-30.87.77-37.69,4.13l2.93,345.27Z" fill="#f1a43e" clip-rule="evenodd"/></clipPath><clipPath id="clip-path-47"><path d="M1439.53,648.81l4.89-342.41s-328-10-331.95-10.15c-8.18-.38-31.14-.69-37.88,1.8l2.95,345.33Z" fill="#f1a43e" clip-rule="evenodd"/></clipPath><clipPath id="clip-path-48"><path d="M1439.05,669.49,1446.14,325s-338.82-26.91-340.49-27c-8.35-.51-25.61-2.36-31.06.13l3,345.37Z" fill="#fff" clip-rule="evenodd"/></clipPath><clipPath id="clip-path-49"><path d="M1439,688.74l5.47-346.4s-322.15-39.94-330.26-41-29.34-4.13-39.57-3.29l3.08,345.42C1090.13,638.72,1439,688.74,1439,688.74Z" fill="#fff" clip-rule="evenodd"/></clipPath><clipPath id="clip-path-50"><path d="M1437.54,720.15,1442,361.72s-310.53-54-326.77-56.77c-6.85-1.16-31.56-5.84-40.65-7.23l3.14,355.46Z" fill="#f1a43e" clip-rule="evenodd"/></clipPath><clipPath id="clip-path-51"><path d="M1436.49,744.13l3-363.7s-315.22-69.29-324-71.55-30.65-8.22-40.86-12l3.21,356.34Z" fill="#f1a43e" clip-rule="evenodd"/></clipPath><clipPath id="clip-path-52"><path d="M1436.38,775.88V399.77S1129.22,317.34,1117,314a278.56,278.56,0,0,1-42.37-16.26l3.29,355.65C1091.17,649.44,1436.38,775.88,1436.38,775.88Z" fill="#fff" clip-rule="evenodd"/></clipPath><clipPath id="clip-path-53"><path d="M1429.93,795.7V419.58s-308-96.71-317.06-99.48-27.09-9.91-38.3-21.13l-1,371.17C1077.11,687.16,1429.93,795.7,1429.93,795.7Z" fill="#fff" clip-rule="evenodd"/></clipPath><clipPath id="clip-path-54"><path d="M1105.18,361.16v52.28l62.32,22.89V384.05Zm104.29,38.62v52.28L1271.79,475V422.68Zm104.29,38.62v52.28l62.32,22.89V461.3Zm-208.58,5.07v52.28l62.32,22.89V466.37Zm104.29,38.62v52.28l62.32,22.89V505Zm104.29,38.62V573l62.32,22.89V543.61Zm-208.58,5.07v52.28L1167.5,601V548.68Zm104.29,38.62V616.7l62.32,22.89V587.3ZM1313.76,603v52.28l62.32,22.89V625.93Zm109.36-164.79,5.35,375.84-153.08-55.18v-71c0-3.22-1.6-8.44-8.21-10.93L1213,657.12c-5.22-3-12,.19-12,3.36v71.21l-81-29.94c-34.29-13.8-47.67-27.8-47.67-48.62V293.61c5.35,21.29,24.1,27.06,56.22,38.54Z" fill="none" clip-rule="evenodd"/></clipPath></defs><title>Square preview</title><g clip-path="url(#clip-path)"><g clip-path="url(#clip-path-2)"><rect x="262.73" y="167.94" width="166.44" height="244.59" fill="#444"/></g></g><path d="M417,337.95l2.25-159.15L284.7,219.64c-10.61,3.56-16.66,7.27-19,10l1.5,175.59C273.22,402.37,417,337.95,417,337.95Z" fill="#f1a43e" fill-rule="evenodd"/><g clip-path="url(#clip-path-3)"><rect x="-691.82" y="-65.58" width="1381.38" height="792.59" fill="#f1a43e"/><g clip-path="url(#clip-path-4)"><rect x="263.81" y="177.23" width="157.3" height="229.59" fill="#f1a43e"/></g></g><g clip-path="url(#clip-path-5)"><g clip-path="url(#clip-path-2)"><rect x="263.81" y="181.91" width="162.81" height="226.93" fill="#fff"/></g></g><path d="M429.14,347.68l2.32-159.13S295.7,220.22,285.25,223.4s-17.15,6.34-19.6,9.07l1.54,175.6C273.44,405.23,429.14,347.68,429.14,347.68Z" fill="#f1a43e" fill-rule="evenodd"/><g clip-path="url(#clip-path-7)"><rect x="-691.82" y="-65.58" width="1381.38" height="792.59" fill="#f1a43e"/><g clip-path="url(#clip-path-4)"><rect x="263.81" y="186.98" width="169.49" height="222.65" fill="#f1a43e"/></g></g><g clip-path="url(#clip-path-9)"><g clip-path="url(#clip-path-2)"><rect x="263.81" y="193.55" width="175.53" height="216.12" fill="#fff"/></g></g><path d="M439.52,361.35l1.92-159.73S296.64,224.55,285.26,227s-17.19,3.13-19.61,5.84l1.53,175.62C273.35,405.72,439.52,361.35,439.52,361.35Z" fill="#f1a43e" fill-rule="evenodd"/><g clip-path="url(#clip-path-11)"><rect x="-691.82" y="-65.58" width="1381.38" height="792.59" fill="#f1a43e"/><g clip-path="url(#clip-path-4)"><rect x="263.81" y="200.68" width="179.84" height="209.37" fill="#f1a43e"/></g></g><g clip-path="url(#clip-path-13)"><g clip-path="url(#clip-path-2)"><rect x="263.81" y="206.22" width="182.54" height="199.05" fill="#fff"/></g></g><path d="M444.84,376.27,446.77,215S288.5,228.49,283.54,229s-15.22,1.8-17.89,4.1L267,403.7C272.67,400.89,444.84,376.27,444.84,376.27Z" fill="#f1a43e" fill-rule="evenodd"/><g clip-path="url(#clip-path-15)"><rect x="-691.82" y="-65.58" width="1381.38" height="792.59" fill="#f1a43e"/><g clip-path="url(#clip-path-4)"><rect x="263.81" y="213.47" width="184.8" height="191.79" fill="#f1a43e"/></g></g><g clip-path="url(#clip-path-17)"><g clip-path="url(#clip-path-2)"><rect x="263.81" y="219.93" width="186.59" height="185.33" fill="#fff"/></g></g><path d="M447.67,395.33l1.82-166.41S285.09,231,284.28,231c-4-.11-15.26.38-18.63,2l1.45,170.69Z" fill="#f1a43e" fill-rule="evenodd"/><g clip-path="url(#clip-path-19)"><rect x="-691.82" y="-65.58" width="1381.38" height="792.59" fill="#f1a43e"/><g clip-path="url(#clip-path-4)"><rect x="263.81" y="227.36" width="187.51" height="177.95" fill="#f1a43e"/></g></g><g clip-path="url(#clip-path-21)"><g clip-path="url(#clip-path-2)"><rect x="263.81" y="230.47" width="186.52" height="177.55" fill="#fff"/></g></g><path d="M445.83,416.68l3.5-170.33S281.83,233,281,233c-4.13-.25-12.66-1.17-15.36.06l1.49,170.74Z" fill="#f1a43e" fill-rule="evenodd"/><g clip-path="url(#clip-path-23)"><rect x="-691.82" y="-65.58" width="1381.38" height="792.59" fill="#f1a43e"/><g clip-path="url(#clip-path-4)"><rect x="263.81" y="230.87" width="187.37" height="187.38" fill="#f1a43e"/></g></g><g clip-path="url(#clip-path-25)"><g clip-path="url(#clip-path-2)"><rect x="263.81" y="231.43" width="186.52" height="196.34" fill="#fff"/></g></g><path d="M445.08,441.73l2.21-177.2s-153.52-26.7-161.55-28.07c-3.39-.58-15.6-2.89-20.1-3.57l1.55,175.73Z" fill="#f1a43e" fill-rule="evenodd"/><g clip-path="url(#clip-path-27)"><rect x="-691.82" y="-65.58" width="1381.38" height="792.59" fill="#f1a43e"/><g clip-path="url(#clip-path-4)"><rect x="263.81" y="231.32" width="185.33" height="211.97" fill="#f1a43e"/></g></g><g clip-path="url(#clip-path-29)"><g clip-path="url(#clip-path-2)"><rect x="263.81" y="230.93" width="184.06" height="224.22" fill="#fff"/></g></g><path d="M444.51,469.28V283.34s-151.85-40.75-157.91-42.4a137.71,137.71,0,0,1-20.95-8l1.62,175.82C273.85,406.77,444.51,469.28,444.51,469.28Z" fill="#f1a43e" fill-rule="evenodd"/><g clip-path="url(#clip-path-31)"><rect x="-691.82" y="-65.58" width="1381.38" height="792.59" fill="#f1a43e"/><g clip-path="url(#clip-path-4)"><rect x="263.81" y="231.33" width="182.54" height="239.51" fill="#f1a43e"/></g></g><g clip-path="url(#clip-path-33)"><g clip-path="url(#clip-path-2)"><rect x="263.32" y="231.95" width="179.84" height="246.5" fill="#fff"/></g></g><g clip-path="url(#clip-path-35)"><g clip-path="url(#clip-path-2)"><rect x="262.73" y="229.29" width="179.72" height="260.44" fill="#444"/></g></g><g id="Flatlas"><path d="M553.82,659a18.8,18.8,0,0,1-12.74-5.29,17.9,17.9,0,0,1-5.79-13h6.3c0,5.67,5.23,12,12.23,12a12.07,12.07,0,0,0,12.29-11.81V630.81c0-7.35-.62-11.16-2.3-14.06-1.76-3.05-5-5.46-11.22-8.32-8.8-4.05-11.93-7-13.92-10.14-2.63-4.17-3.19-9.13-3.26-16.29v-.06l.11-11.25A18.54,18.54,0,0,1,554,552.41c9.94,0,17.86,8,18,18.26l-6.3.1c-.11-6.88-5.15-12.06-11.73-12.06a12.3,12.3,0,0,0-12.23,12.06L541.7,582c.07,7,.67,10.4,2.29,13s4.83,4.83,11.24,7.79c7.5,3.45,11.56,6.61,14,10.89,2.62,4.53,3.14,9.94,3.14,17.21V641a17.85,17.85,0,0,1-5.92,13.2A19.17,19.17,0,0,1,553.82,659Z" fill="#444"/><path d="M467.1,657c0-3.25-.19-79.78-.05-88.12a18.53,18.53,0,0,1,37.05,0V657h-6.3v-88a12.23,12.23,0,0,0-24.46,0c-.13,8.28.05,87.21.05,88Z" fill="#444"/><rect x="470.36" y="602.99" width="30.59" height="6.3" fill="#444"/><rect x="409.85" y="651.13" width="22.49" height="6.3" fill="#444"/><rect x="409.85" y="554.41" width="6.3" height="102.57" fill="#444"/><rect x="334.9" y="554.41" width="33.91" height="6.3" fill="#444"/><rect x="350.39" y="554.41" width="6.3" height="102.57" fill="#444"/><path d="M261.65,657c0-3.25-.19-79.78-.05-88.12a18.53,18.53,0,0,1,37.05,0V657h-6.3v-88a12.23,12.23,0,0,0-24.46,0c-.13,8.28.05,87.21.05,88Z" fill="#444"/><rect x="267.16" y="602.99" width="26.43" height="6.3" fill="#444"/><rect x="202.98" y="651.13" width="22.49" height="6.3" fill="#444"/><rect x="202.98" y="554.41" width="6.3" height="102.57" fill="#444"/><rect x="93.51" y="602.49" width="102.68" height="6.3" transform="translate(-460.94 749.82) rotate(-89.94)" fill="#444"/><rect x="141.76" y="554.35" width="31.14" height="6.3" transform="translate(-2.52 0.72) rotate(-0.26)" fill="#444"/><rect x="145.05" y="602.99" width="15.66" height="6.3" fill="#444"/></g><path d="M1380.76,510.23l4.55-321.92-272.2,82.62c-21.46,7.19-33.71,14.71-38.52,20.28l3,355.18C1089.9,640.53,1380.76,510.23,1380.76,510.23Z" fill="#f1a43e" fill-rule="evenodd"/><g clip-path="url(#clip-path-38)"><rect x="-862.16" y="-306.02" width="2794.21" height="1603.23" fill="#f1a43e"/></g><path d="M1392,519.65l4.51-321.88S1134.64,269,1112.76,275.33s-33.39,14.4-38.16,19.93l3,355.2C1089.76,644.72,1392,519.65,1392,519.65Z" fill="#f1a43e" fill-rule="evenodd"/><g clip-path="url(#clip-path-39)"><rect x="-862.16" y="-306.02" width="2794.21" height="1603.23" fill="#f1a43e"/></g><path d="M1405.3,529.91,1410,208s-274.62,64.07-295.75,70.5-34.69,12.81-39.64,18.34l3.12,355.2C1090.34,646.32,1405.3,529.91,1405.3,529.91Z" fill="#fff" fill-rule="evenodd"/><g clip-path="url(#clip-path-41)"><rect x="-862.16" y="-306.02" width="2794.21" height="1603.23" fill="#fff"/></g><path d="M1426.28,557.57l3.89-323.1s-292.9,46.37-315.91,51.41-34.77,6.33-39.67,11.8l3.09,355.24C1090.17,647.31,1426.28,557.57,1426.28,557.57Z" fill="#f1a43e" fill-rule="evenodd"/><g clip-path="url(#clip-path-42)"><rect x="-862.16" y="-306.02" width="2794.21" height="1603.23" fill="#f1a43e"/></g><path d="M1431.94,559.8l4.45-312.87s-311.6,39.43-323.72,41.28-32.08,4.9-38.07,9.83l3,345.19C1089.54,637.55,1431.94,559.8,1431.94,559.8Z" fill="#f1a43e" fill-rule="evenodd"/><g clip-path="url(#clip-path-43)"><rect x="-862.16" y="-306.02" width="2794.21" height="1603.23" fill="#f1a43e"/></g><path d="M1437.05,587.75l3.9-326.15s-320.15,27.22-330.18,28.14S1080,293.4,1074.59,298l2.82,345.19C1088.8,637.54,1437.05,587.75,1437.05,587.75Z" fill="#fff" fill-rule="evenodd"/><g clip-path="url(#clip-path-44)"><rect x="-862.16" y="-306.02" width="2794.21" height="1603.23" fill="#fff"/></g><path d="M1438.94,600.91l5.64-326.24s-325.09,16.65-333.06,16.65-31.94,3.4-36.92,6.72l2.87,345.19Z" fill="#fff" fill-rule="evenodd"/><g clip-path="url(#clip-path-45)"><rect x="-862.16" y="-306.02" width="2794.21" height="1603.23" fill="#fff"/></g><path d="M1442.77,626.31l3.68-336.61s-332.53,4.26-334.16,4.22c-8.14-.22-30.87.77-37.69,4.13l2.93,345.27Z" fill="#f1a43e" fill-rule="evenodd"/><g clip-path="url(#clip-path-46)"><rect x="-862.16" y="-306.02" width="2794.21" height="1603.23" fill="#f1a43e"/></g><path d="M1439.53,648.81l4.89-342.41s-328-10-331.95-10.15c-8.18-.38-31.14-.69-37.88,1.8l2.95,345.33Z" fill="#f1a43e" fill-rule="evenodd"/><g clip-path="url(#clip-path-47)"><rect x="-862.16" y="-306.02" width="2794.21" height="1603.23" fill="#f1a43e"/></g><path d="M1439.05,669.49,1446.14,325s-338.82-26.91-340.49-27c-8.35-.51-25.61-2.36-31.06.13l3,345.37Z" fill="#fff" fill-rule="evenodd"/><g clip-path="url(#clip-path-48)"><rect x="-862.16" y="-306.02" width="2794.21" height="1603.23" fill="#fff"/></g><path d="M1439,688.74l5.47-346.4s-322.15-39.94-330.26-41-29.34-4.13-39.57-3.29l3.08,345.42C1090.13,638.72,1439,688.74,1439,688.74Z" fill="#fff" fill-rule="evenodd"/><g clip-path="url(#clip-path-49)"><rect x="-862.16" y="-306.02" width="2794.21" height="1603.23" fill="#fff"/></g><path d="M1437.54,720.15,1442,361.72s-310.53-54-326.77-56.77c-6.85-1.16-31.56-5.84-40.65-7.23l3.14,355.46Z" fill="#f1a43e" fill-rule="evenodd"/><g clip-path="url(#clip-path-50)"><rect x="-862.16" y="-306.02" width="2794.21" height="1603.23" fill="#f1a43e"/></g><path d="M1436.49,744.13l3-363.7s-315.22-69.29-324-71.55-30.65-8.22-40.86-12l3.21,356.34Z" fill="#f1a43e" fill-rule="evenodd"/><g clip-path="url(#clip-path-51)"><rect x="-862.16" y="-306.02" width="2794.21" height="1603.23" fill="#f1a43e"/></g><path d="M1436.38,775.88V399.77S1129.22,317.34,1117,314a278.56,278.56,0,0,1-42.37-16.26l3.29,355.65C1091.17,649.44,1436.38,775.88,1436.38,775.88Z" fill="#fff" fill-rule="evenodd"/><g clip-path="url(#clip-path-52)"><rect x="-862.16" y="-306.02" width="2794.21" height="1603.23" fill="#fff"/></g><path d="M1429.93,795.7V419.58s-308-96.71-317.06-99.48-27.09-9.91-38.3-21.13l-1,371.17C1077.11,687.16,1429.93,795.7,1429.93,795.7Z" fill="#fff" fill-rule="evenodd"/><g clip-path="url(#clip-path-53)"><rect x="-862.16" y="-306.02" width="2794.21" height="1603.23" fill="#fff"/></g></svg>